<svg width="60" height="60" viewBox="0 0 60 60" fill="none" xmlns="http://www.w3.org/2000/svg">
<g clip-path="url(#clip0_753_224)">
<path d="M50.9126 7.98203C45.1632 2.59961 37.3343 -0.336253 29.6276 0.0307304C33.4198 0.153058 37.2119 0.887025 40.7594 2.47729C44.3069 3.94522 47.4875 6.14712 50.0564 8.83833C55.4388 14.2207 58.3746 21.6827 58.3746 29.0224C58.3746 32.6922 57.6407 36.4844 56.1727 39.9096C54.8271 43.3347 52.7476 46.5153 50.0564 49.0841C45.0409 54.4666 37.7013 57.5248 30.3616 57.5248C23.0219 57.6471 15.5599 54.7112 10.2998 49.5735C7.60862 47.0046 5.52905 43.9464 4.06112 40.5212C2.59319 37.096 1.73689 33.4262 1.61457 29.7564C1.36991 22.2944 4.18345 14.8324 9.44354 9.32764C12.0124 6.5141 15.1929 4.3122 18.6181 2.72194C22.0433 1.13168 25.8355 0.275386 29.7499 0.0307304C21.921 -0.213925 14.2143 2.9666 8.58725 8.47134C2.96017 13.9761 -0.342678 21.8051 -0.22035 29.7564C-0.342678 37.7077 3.0825 45.659 8.8319 51.1637C14.459 56.7908 22.4103 60.0936 30.4839 59.9713C38.5575 59.849 46.3865 56.4238 51.8913 50.6744C57.396 44.925 60.6989 36.9737 60.3319 29.0224C60.0872 21.0711 56.662 13.3645 50.9126 7.98203Z" fill="black"/>
<path d="M41.7378 28.9001C38.5573 29.0224 35.6214 26.8205 34.5205 23.273C34.0312 25.1079 34.6428 27.3098 36.1107 28.9001C37.4563 30.4903 39.6582 31.469 41.8601 31.3466C44.062 31.3466 46.1416 30.2457 47.4872 28.5331C48.8328 26.9428 49.3221 24.6186 48.7105 22.7837C47.7319 26.5759 44.9183 28.7778 41.7378 28.9001ZM11.2782 23.273C10.7889 25.1079 11.4005 27.3098 12.8685 28.9001C14.2141 30.4903 16.416 31.469 18.6179 31.3466C20.8198 31.3466 22.8993 30.2457 24.2449 28.5331C25.5905 26.9428 26.0799 24.6186 25.4682 22.7837C24.4896 26.4535 21.7984 28.7778 18.4955 28.7778C17.0276 28.9001 12.3791 26.9428 11.2782 23.273ZM29.9943 39.7872C27.3031 39.7872 24.7343 40.8882 22.8993 42.6008C21.0644 44.3134 19.8411 46.6376 19.3518 48.9618C20.8198 47.0046 22.2877 45.292 24.1226 44.0687C25.9575 42.8454 27.9148 42.1115 29.9943 42.2338C32.0739 42.2338 34.0312 42.9678 35.8661 44.3134C37.701 45.5367 39.1689 47.2492 40.6369 49.2065C40.1475 46.8823 38.9243 44.558 37.0894 42.8454C35.2544 41.0105 32.6856 39.7872 29.9943 39.7872Z" fill="black"/>
</g>
<defs>
<clipPath id="clip0_753_224">
<rect width="60" height="60" fill="white"/>
</clipPath>
</defs>
</svg>
