<svg xmlns="http://www.w3.org/2000/svg" width="70" height="70" viewBox="0 0 70 70" fill="none"><circle cx="35" cy="35" r="35" fill="white"></circle><mask id="mask0_21_40" style="mask-type:alpha" maskUnits="userSpaceOnUse" x="10" y="10" width="50" height="50"><rect x="10" y="10" width="50" height="50" fill="#D9D9D9"></rect></mask><g mask="url(#mask0_21_40)"><path d="M52.6777 17.3223C47.9559 12.6005 41.6777 10 35 10C28.3223 10 22.0441 12.6005 17.3223 17.3223C12.6004 22.044 10 28.3223 10 35C10 41.6777 12.6005 47.9559 17.3223 52.6777C22.044 57.3996 28.3223 60 35 60C41.6777 60 47.9559 57.3995 52.6777 52.6777C57.3996 47.956 60 41.6777 60 35C60 28.3223 57.3995 22.0441 52.6777 17.3223ZM35 58.5352C22.0227 58.5352 11.4648 47.9773 11.4648 35C11.4648 22.0227 22.0227 11.4648 35 11.4648C47.9773 11.4648 58.5352 22.0227 58.5352 35C58.5352 47.9773 47.9773 58.5352 35 58.5352Z" fill="#FF0000"></path><path d="M50.5161 23.7913C50.454 23.7054 50.374 23.634 50.2816 23.5821C50.1892 23.5302 50.0866 23.4989 49.9809 23.4905C49.8752 23.482 49.769 23.4966 49.6695 23.5333C49.5701 23.5699 49.4797 23.6277 49.4048 23.7026L23.7026 49.4047C23.6277 49.4797 23.57 49.57 23.5333 49.6695C23.4967 49.7689 23.4821 49.8752 23.4906 49.9808C23.499 50.0865 23.5302 50.189 23.5822 50.2814C23.6341 50.3738 23.7054 50.4539 23.7913 50.516C27.0613 52.881 30.9378 54.1312 35.0014 54.1313C40.1193 54.1313 44.9251 52.1437 48.5344 48.5344C51.767 45.3017 53.7355 41.0075 54.0774 36.4429C54.4155 31.9274 53.1508 27.4344 50.5161 23.7913ZM47.4985 47.4986C44.1658 50.8313 39.7276 52.6667 35.0015 52.6665C31.5388 52.6663 28.224 51.6841 25.3611 49.8178L49.818 25.3608C54.3836 32.3507 53.4661 41.5312 47.4985 47.4986ZM46.5095 20.019C46.501 19.9134 46.4697 19.8108 46.4178 19.7184C46.3658 19.626 46.2945 19.546 46.2086 19.4839C42.7748 17.0004 38.536 15.7221 34.2704 15.8829C29.983 16.0451 25.8332 17.6607 22.5854 20.4322C22.4399 20.5589 22.3502 20.738 22.336 20.9305C22.3217 21.1229 22.3839 21.3132 22.5092 21.46C22.6345 21.6069 22.8126 21.6983 23.0049 21.7145C23.1973 21.7307 23.3882 21.6703 23.5362 21.5465C29.5355 16.4271 38.0944 15.9111 44.639 20.1819L20.182 44.639C15.911 38.0943 16.4271 29.5354 21.5465 23.5363C21.6703 23.3883 21.7307 23.1974 21.7145 23.005C21.6983 22.8127 21.6068 22.6346 21.46 22.5093C21.3132 22.384 21.1229 22.3218 20.9305 22.3361C20.738 22.3503 20.5589 22.44 20.4322 22.5855C17.6607 25.8332 16.0451 29.983 15.8829 34.2704C15.7217 38.5351 17.0005 42.7748 19.484 46.2086C19.5461 46.2945 19.6261 46.3659 19.7185 46.4178C19.811 46.4698 19.9135 46.5011 20.0192 46.5095C20.1249 46.5179 20.2311 46.5033 20.3306 46.4667C20.4301 46.43 20.5204 46.3722 20.5954 46.2973L46.2974 20.5952C46.3723 20.5202 46.43 20.4299 46.4667 20.3304C46.5033 20.2309 46.5179 20.1247 46.5095 20.019Z" fill="#FF0000"></path></g></svg>