<svg xmlns="http://www.w3.org/2000/svg" width="70" height="70" viewBox="0 0 70 70" fill="none"><circle cx="35" cy="35" r="35" fill="white"></circle><mask id="mask0_21_41" style="mask-type:alpha" maskUnits="userSpaceOnUse" x="10" y="10" width="50" height="50"><rect x="10" y="10" width="50" height="50" fill="#D9D9D9"></rect></mask><g mask="url(#mask0_21_41)"><circle cx="35" cy="35" r="24.25" stroke="#1781FE" stroke-width="1.5"></circle><path fill-rule="evenodd" clip-rule="evenodd" d="M34.5709 18.123C34.6996 18.0426 34.8482 18 34.9999 18C35.1517 18 35.3003 18.0426 35.429 18.123L38.8776 20.2764C40.7726 21.4611 42.903 22.2185 45.1206 22.4961L48.0527 22.8636C48.2485 22.8881 48.4285 22.9832 48.5591 23.1311C48.6897 23.2789 48.7618 23.4694 48.7619 23.6667V34.1209C48.7619 37.0042 48.0285 39.8401 46.6308 42.3619C45.2331 44.8838 43.2169 47.0087 40.7718 48.5369L35.429 51.877C35.3003 51.9574 35.1517 52 34.9999 52C34.8482 52 34.6996 51.9574 34.5709 51.877L29.228 48.5369C26.783 47.0087 24.7668 44.8838 23.3691 42.3619C21.9714 39.8401 21.238 37.0042 21.238 34.1209V23.6667C21.2381 23.4694 21.3102 23.2789 21.4408 23.1311C21.5713 22.9832 21.7514 22.8881 21.9472 22.8636L24.8793 22.4961C27.0973 22.2193 29.2283 21.4623 31.1239 20.278L34.5709 18.123ZM34.9999 19.7648L31.982 21.651C29.8869 22.9604 27.5316 23.7974 25.08 24.1038L22.8571 24.379V34.1209C22.8574 36.7293 23.521 39.2948 24.7856 41.5762C26.0502 43.8575 27.8742 45.7798 30.0861 47.1623L34.9999 50.2352L39.9138 47.1639C42.1259 45.7813 43.9501 43.8588 45.2147 41.5771C46.4793 39.2954 47.1428 36.7296 47.1428 34.1209V24.3823L44.9199 24.1054C42.4683 23.7991 40.1129 22.962 38.0178 21.6526L34.9999 19.7648Z" fill="#1781FE"></path><path fill-rule="evenodd" clip-rule="evenodd" d="M41.2398 30.716L34.7636 37.1922C34.6118 37.344 34.4059 37.4292 34.1913 37.4292C33.9766 37.4292 33.7708 37.344 33.619 37.1922L30.3809 33.9541L31.5255 32.8094L34.1905 35.4744L40.0951 29.5697L41.2398 30.716Z" fill="#1781FE"></path></g></svg>