<svg xmlns="http://www.w3.org/2000/svg" width="133" height="37" viewBox="0 0 133 37" fill="none"><circle cx="71" cy="30" r="6" fill="#00AA6C"></circle><circle cx="85" cy="30" r="6" fill="#00AA6C"></circle><circle cx="99" cy="30" r="6" fill="#00AA6C"></circle><circle cx="113" cy="30" r="6" fill="#00AA6C"></circle><circle cx="127" cy="30" r="5.5" stroke="#00AA6C"></circle><path d="M121 30C121 33.3137 123.686 36 127 36V24C123.686 24 121 26.6863 121 30Z" fill="#00AA6C"></path><path d="M1.08594 24.625H5.21875C6.08333 24.625 6.82552 24.7552 7.44531 25.0156C8.0651 25.276 8.54167 25.6615 8.875 26.1719C9.20833 26.6823 9.375 27.3099 9.375 28.0547C9.375 28.6432 9.27083 29.1536 9.0625 29.5859C8.85417 30.0182 8.5599 30.3802 8.17969 30.6719C7.80469 30.9635 7.36198 31.1927 6.85156 31.3594L6.17969 31.7031H2.53125L2.51562 30.0078H5.24219C5.6849 30.0078 6.05208 29.9297 6.34375 29.7734C6.63542 29.6172 6.85417 29.401 7 29.125C7.15104 28.849 7.22656 28.5339 7.22656 28.1797C7.22656 27.7995 7.15365 27.4714 7.00781 27.1953C6.86198 26.9141 6.64062 26.6979 6.34375 26.5469C6.04688 26.3958 5.67188 26.3203 5.21875 26.3203H3.23438V36H1.08594V24.625ZM7.50781 36L4.875 30.9062L7.14844 30.8984L9.8125 35.8906V36H7.50781ZM14.8984 36.1562C14.2578 36.1562 13.6823 36.0521 13.1719 35.8438C12.6615 35.6354 12.2266 35.3464 11.8672 34.9766C11.513 34.6016 11.2396 34.1667 11.0469 33.6719C10.8594 33.1719 10.7656 32.6354 10.7656 32.0625V31.75C10.7656 31.099 10.8594 30.5078 11.0469 29.9766C11.2344 29.4401 11.5 28.9792 11.8438 28.5938C12.1875 28.2083 12.599 27.9115 13.0781 27.7031C13.5573 27.4948 14.0859 27.3906 14.6641 27.3906C15.263 27.3906 15.7917 27.4922 16.25 27.6953C16.7083 27.8932 17.0911 28.1745 17.3984 28.5391C17.7057 28.9036 17.9375 29.3411 18.0938 29.8516C18.25 30.3568 18.3281 30.9167 18.3281 31.5312V32.3984H11.7031V30.9766H16.2969V30.8203C16.2865 30.4922 16.224 30.1927 16.1094 29.9219C15.9948 29.6458 15.8177 29.4271 15.5781 29.2656C15.3385 29.099 15.0286 29.0156 14.6484 29.0156C14.3411 29.0156 14.0729 29.0833 13.8438 29.2188C13.6198 29.349 13.4323 29.5365 13.2812 29.7812C13.1354 30.0208 13.026 30.3073 12.9531 30.6406C12.8802 30.974 12.8438 31.3438 12.8438 31.75V32.0625C12.8438 32.4167 12.8906 32.7448 12.9844 33.0469C13.0833 33.349 13.2266 33.612 13.4141 33.8359C13.6068 34.0547 13.8359 34.2266 14.1016 34.3516C14.3724 34.4714 14.6797 34.5312 15.0234 34.5312C15.4557 34.5312 15.8464 34.4479 16.1953 34.2812C16.5495 34.1094 16.8568 33.8568 17.1172 33.5234L18.1562 34.6016C17.9792 34.862 17.7396 35.112 17.4375 35.3516C17.1406 35.5911 16.7812 35.7865 16.3594 35.9375C15.9375 36.0833 15.4505 36.1562 14.8984 36.1562ZM22.4062 34.4375L24.375 27.5469H26.5312L23.6328 36H22.3203L22.4062 34.4375ZM20.9688 27.5469L22.9609 34.4531L23.0312 36H21.7109L18.8047 27.5469H20.9688ZM29.8047 27.5469V36H27.7344V27.5469H29.8047ZM27.5938 25.3359C27.5938 25.0286 27.6979 24.7734 27.9062 24.5703C28.1198 24.3672 28.4062 24.2656 28.7656 24.2656C29.125 24.2656 29.4089 24.3672 29.6172 24.5703C29.8307 24.7734 29.9375 25.0286 29.9375 25.3359C29.9375 25.638 29.8307 25.8906 29.6172 26.0938C29.4089 26.2969 29.125 26.3984 28.7656 26.3984C28.4062 26.3984 28.1198 26.2969 27.9062 26.0938C27.6979 25.8906 27.5938 25.638 27.5938 25.3359ZM35.5703 36.1562C34.9297 36.1562 34.3542 36.0521 33.8438 35.8438C33.3333 35.6354 32.8984 35.3464 32.5391 34.9766C32.1849 34.6016 31.9115 34.1667 31.7188 33.6719C31.5312 33.1719 31.4375 32.6354 31.4375 32.0625V31.75C31.4375 31.099 31.5312 30.5078 31.7188 29.9766C31.9062 29.4401 32.1719 28.9792 32.5156 28.5938C32.8594 28.2083 33.2708 27.9115 33.75 27.7031C34.2292 27.4948 34.7578 27.3906 35.3359 27.3906C35.9349 27.3906 36.4635 27.4922 36.9219 27.6953C37.3802 27.8932 37.763 28.1745 38.0703 28.5391C38.3776 28.9036 38.6094 29.3411 38.7656 29.8516C38.9219 30.3568 39 30.9167 39 31.5312V32.3984H32.375V30.9766H36.9688V30.8203C36.9583 30.4922 36.8958 30.1927 36.7812 29.9219C36.6667 29.6458 36.4896 29.4271 36.25 29.2656C36.0104 29.099 35.7005 29.0156 35.3203 29.0156C35.013 29.0156 34.7448 29.0833 34.5156 29.2188C34.2917 29.349 34.1042 29.5365 33.9531 29.7812C33.8073 30.0208 33.6979 30.3073 33.625 30.6406C33.5521 30.974 33.5156 31.3438 33.5156 31.75V32.0625C33.5156 32.4167 33.5625 32.7448 33.6562 33.0469C33.7552 33.349 33.8984 33.612 34.0859 33.8359C34.2786 34.0547 34.5078 34.2266 34.7734 34.3516C35.0443 34.4714 35.3516 34.5312 35.6953 34.5312C36.1276 34.5312 36.5182 34.4479 36.8672 34.2812C37.2214 34.1094 37.5286 33.8568 37.7891 33.5234L38.8281 34.6016C38.651 34.862 38.4115 35.112 38.1094 35.3516C37.8125 35.5911 37.4531 35.7865 37.0312 35.9375C36.6094 36.0833 36.1224 36.1562 35.5703 36.1562ZM42.7344 33.9688L44.5859 27.5469H45.8984L45.5078 29.7656L43.6406 36H42.5078L42.7344 33.9688ZM41.7109 27.5469L43.1016 33.9844L43.2266 36H41.9219L39.7031 27.5469H41.7109ZM47.6172 33.8906L48.9766 27.5469H50.9766L48.7734 36H47.4688L47.6172 33.8906ZM46.1016 27.5469L47.9375 33.9062L48.1797 36H47.0469L45.1641 29.7656L44.7812 27.5469H46.1016ZM56.8438 33.6875C56.8438 33.5104 56.7969 33.3516 56.7031 33.2109C56.6094 33.0703 56.4323 32.9427 56.1719 32.8281C55.9167 32.7083 55.5417 32.5964 55.0469 32.4922C54.6094 32.3984 54.2057 32.2812 53.8359 32.1406C53.4661 32 53.1484 31.8307 52.8828 31.6328C52.6172 31.4297 52.4089 31.1927 52.2578 30.9219C52.112 30.6458 52.0391 30.3281 52.0391 29.9688C52.0391 29.6198 52.1146 29.2917 52.2656 28.9844C52.4167 28.6719 52.6354 28.3984 52.9219 28.1641C53.2083 27.9245 53.5573 27.737 53.9688 27.6016C54.3802 27.4609 54.8438 27.3906 55.3594 27.3906C56.0781 27.3906 56.6953 27.5078 57.2109 27.7422C57.7318 27.9766 58.1302 28.2995 58.4062 28.7109C58.6823 29.1172 58.8203 29.5755 58.8203 30.0859H56.7578C56.7578 29.862 56.7057 29.6589 56.6016 29.4766C56.5026 29.2943 56.349 29.1484 56.1406 29.0391C55.9323 28.9245 55.6693 28.8672 55.3516 28.8672C55.0651 28.8672 54.8229 28.9141 54.625 29.0078C54.4323 29.1016 54.2865 29.224 54.1875 29.375C54.0885 29.526 54.0391 29.6927 54.0391 29.875C54.0391 30.0104 54.0651 30.1328 54.1172 30.2422C54.1745 30.3464 54.2656 30.4427 54.3906 30.5312C54.5156 30.6198 54.6849 30.7005 54.8984 30.7734C55.1172 30.8464 55.3854 30.9167 55.7031 30.9844C56.3333 31.1094 56.8828 31.276 57.3516 31.4844C57.8255 31.6875 58.1953 31.9583 58.4609 32.2969C58.7266 32.6354 58.8594 33.0677 58.8594 33.5938C58.8594 33.9688 58.7786 34.3125 58.6172 34.625C58.4557 34.9323 58.2214 35.2005 57.9141 35.4297C57.6068 35.6589 57.2396 35.8385 56.8125 35.9688C56.3854 36.0938 55.9036 36.1562 55.3672 36.1562C54.5911 36.1562 53.9349 36.0182 53.3984 35.7422C52.862 35.4609 52.4557 35.1068 52.1797 34.6797C51.9036 34.2474 51.7656 33.7995 51.7656 33.3359H53.7422C53.7578 33.6641 53.8464 33.9271 54.0078 34.125C54.1693 34.3229 54.3724 34.4661 54.6172 34.5547C54.8672 34.638 55.1302 34.6797 55.4062 34.6797C55.7188 34.6797 55.9818 34.638 56.1953 34.5547C56.4089 34.4661 56.5703 34.349 56.6797 34.2031C56.7891 34.0521 56.8438 33.8802 56.8438 33.6875Z" fill="#525252"></path><path d="M103.244 13.5015C102.827 13.5015 102.488 13.8335 102.488 14.2422C102.488 14.6508 102.827 14.9828 103.244 14.9828C103.661 14.9828 104 14.6508 104 14.2422C104 13.8335 103.661 13.5015 103.244 13.5015ZM103.244 14.8653C102.892 14.8653 102.608 14.585 102.608 14.2422C102.608 13.8977 102.894 13.619 103.244 13.619C103.596 13.619 103.882 13.8993 103.882 14.2422C103.882 14.585 103.596 14.8653 103.244 14.8653ZM103.49 14.1153C103.49 13.9807 103.393 13.9008 103.249 13.9008H103.007V14.5756H103.126V14.3314H103.255L103.38 14.5756H103.508L103.37 14.3064C103.444 14.2735 103.49 14.2077 103.49 14.1153ZM103.244 14.2265H103.127V14.0026H103.244C103.324 14.0026 103.372 14.0417 103.372 14.1138C103.372 14.1874 103.322 14.2265 103.244 14.2265ZM12.1604 6.00623V4.215H9.35723V14.8716H12.1604V8.48174C12.1604 7.32463 12.9179 6.75623 14.099 6.75623H15.6332V4.21504H14.3227C13.2967 4.215 12.4049 4.73953 12.1604 6.00623ZM18.259 0C17.3001 0 16.5649 0.742182 16.5649 1.68163C16.5649 2.59917 17.3001 3.34135 18.259 3.34135C19.2178 3.34135 19.953 2.59917 19.953 1.68163C19.953 0.742143 19.2178 0 18.259 0ZM16.8606 14.8716H19.6574V4.215H16.8606V14.8716ZM32.9795 9.54328C32.9795 12.5855 30.4625 15.0517 27.3572 15.0517C26.1042 15.0517 24.968 14.6493 24.057 13.9697V18H21.2602V4.215H24.057V5.11686C24.968 4.43734 26.1042 4.03494 27.3572 4.03494C30.4625 4.03494 32.9795 6.50102 32.9795 9.54328ZM30.1652 9.54328C30.1652 7.89142 28.7972 6.5511 27.1111 6.5511C25.4251 6.5511 24.057 7.89142 24.057 9.54328C24.057 11.1952 25.4251 12.5355 27.1111 12.5355C28.7972 12.5355 30.1652 11.1967 30.1652 9.54328ZM81.589 8.60854L79.9573 8.17012C78.8834 7.8961 78.4663 7.57356 78.4663 7.01773C78.4663 6.47596 79.0544 6.09705 79.895 6.09705C80.6957 6.09705 81.3238 6.61062 81.3238 7.26822V7.32927H83.9016V7.26822C83.9016 5.33448 82.2923 4.0349 79.895 4.0349C77.5218 4.0349 75.7974 5.33291 75.7974 7.12257C75.7974 8.51454 76.7386 9.56359 78.3815 9.99886L79.9446 10.4169C81.132 10.7395 81.5731 11.0965 81.5731 11.7369C81.5731 12.4118 80.9354 12.8658 79.9861 12.8658C78.9968 12.8658 78.3304 12.252 78.3304 11.3408V11.2797H75.5944V11.3408C75.5944 13.5266 77.3907 15.0547 79.9638 15.0547C82.4425 15.0547 84.242 13.5626 84.242 11.5083C84.242 10.4999 83.7817 9.18162 81.589 8.60854ZM42.9009 4.215H45.6977V14.8716H42.9009V13.9697C41.99 14.6492 40.8536 15.0516 39.6007 15.0516C36.4955 15.0516 33.9784 12.5855 33.9784 9.54324C33.9784 6.50094 36.4955 4.0349 39.6007 4.0349C40.8536 4.0349 41.99 4.4373 42.9009 5.11682V4.215ZM42.9009 9.54328C42.9009 7.88985 41.5329 6.5511 39.8468 6.5511C38.1607 6.5511 36.7928 7.89142 36.7928 9.54328C36.7928 11.1952 38.1607 12.5355 39.8468 12.5355C41.5344 12.5355 42.9009 11.1967 42.9009 9.54328ZM55.7964 0.422746H58.5932V14.8731H55.7964V13.9712C54.8855 14.6508 53.7492 15.0532 52.4963 15.0532C49.391 15.0532 46.8739 12.5871 46.8739 9.54481C46.8739 6.50251 49.391 4.03647 52.4963 4.03647C53.7492 4.03647 54.8855 4.43887 55.7964 5.1184V0.422746ZM55.7964 9.54328C55.7964 7.89142 54.4284 6.5511 52.7423 6.5511C51.0563 6.5511 49.6883 7.89142 49.6883 9.54328C49.6883 11.1952 51.0547 12.5355 52.7423 12.5355C54.4284 12.5355 55.7964 11.1967 55.7964 9.54328ZM71.5782 14.8716H74.3749V4.215H71.5782V14.8716ZM72.9766 0C72.0177 0 71.2825 0.742182 71.2825 1.68163C71.2825 2.59917 72.0177 3.34135 72.9766 3.34135C73.9355 3.34135 74.6706 2.59917 74.6706 1.68163C74.6706 0.742143 73.9355 0 72.9766 0ZM96.3304 9.54328C96.3304 12.5855 93.8133 15.0517 90.7081 15.0517C87.6029 15.0517 85.0858 12.5856 85.0858 9.54328C85.0858 6.50098 87.6029 4.03494 90.7081 4.03494C93.8133 4.03494 96.3304 6.50102 96.3304 9.54328ZM93.7622 9.54328C93.7622 7.89142 92.3942 6.5511 90.7081 6.5511C89.022 6.5511 87.6541 7.89142 87.6541 9.54328C87.6541 11.1952 89.0205 12.5355 90.7081 12.5355C92.3941 12.5355 93.7622 11.1967 93.7622 9.54328ZM10.7284 0.422746H0V2.86691H3.97144V14.8716H6.75862V2.86691H10.7301V0.422746H10.7284ZM64.9842 11.953L62.4959 4.21504H59.5585L63.2902 14.8716H66.6559L70.4099 4.21504H67.4725L64.9842 11.953ZM100.428 6.00623V4.215H97.6249V14.8716H100.428V8.48174C100.428 7.32463 101.186 6.75623 102.367 6.75623H103.901V4.21504H102.59C101.564 4.215 100.674 4.73953 100.428 6.00623Z" fill="#110F0F"></path></svg>