<?xml version="1.0" encoding="UTF-8"?>
<svg xmlns="http://www.w3.org/2000/svg" width="14" height="14" viewBox="0 0 14 14">
  <g fill="#1781FE">
    <path fill-rule="evenodd" clip-rule="evenodd" d="M6.99957 13.2223C1.87557 13.2223 0.777344 12.1241 0.777344 7.00005C0.777344 1.87605 1.87557 0.777832 6.99957 0.777832C12.1236 0.777832 13.2218 1.87605 13.2218 7.00005C13.2218 12.1241 12.1236 13.2223 6.99957 13.2223ZM8.7502 4.15757C8.70464 4.07469 8.63728 4.00586 8.55541 3.95852C8.47353 3.91118 8.38027 3.88713 8.28572 3.88899C8.19116 3.89084 8.09892 3.91853 8.01897 3.96904C7.93901 4.01956 7.8744 4.09098 7.83213 4.17558L5.68143 8.47696L4.73171 6.75019C4.68697 6.66884 4.6212 6.60099 4.54128 6.55373C4.46136 6.50647 4.37022 6.48154 4.27737 6.48154H3.36997C3.0836 6.48154 2.85146 6.71369 2.85146 7.00005C2.85146 7.28642 3.0836 7.51857 3.36997 7.51857H3.9708L5.24898 9.84252C5.29456 9.92538 5.36193 9.9942 5.4438 10.0415C5.52568 10.0889 5.61893 10.1129 5.71349 10.1111C5.80804 10.1092 5.90028 10.0815 5.98023 10.031C6.06018 9.98053 6.1248 9.90912 6.16708 9.82453L8.31778 5.52318L9.26749 7.24994C9.31223 7.3313 9.37799 7.39915 9.45791 7.44641C9.53783 7.49366 9.62897 7.51859 9.72181 7.51859H10.6292C10.9156 7.51859 11.1477 7.28645 11.1477 7.00008C11.1477 6.71371 10.9156 6.48157 10.6292 6.48157H10.0284L8.7502 4.15757Z"></path>
  </g>
</svg>
