<?xml version="1.0" encoding="UTF-8"?>
<svg xmlns="http://www.w3.org/2000/svg" width="18" height="18" viewBox="0 0 18 18">
  <g>
    <path d="M17.9848 13.8341L17.0168 7.61513C16.9561 7.21675 16.7543 6.85344 16.4481 6.59139C16.142 6.32934 15.7519 6.18601 15.3489 6.1875H14.625C14.625 3.897 12.9038 2.00475 10.6875 1.72631V1.125C10.6875 0.975816 10.6282 0.832742 10.5227 0.727253C10.4173 0.621763 10.2742 0.5625 10.125 0.5625C9.97582 0.5625 9.83274 0.621763 9.72725 0.727253C9.62176 0.832742 9.5625 0.975816 9.5625 1.125V1.72631C7.34625 2.00475 5.625 3.897 5.625 6.1875H4.40663L3.53363 1.386C3.46333 0.997026 3.25858 0.645121 2.95517 0.391778C2.65175 0.138436 2.26896 -0.000233978 1.87369 2.96358e-07H0.5625C0.413316 2.96358e-07 0.270242 0.0592635 0.164752 0.164753C0.0592632 0.270242 0 0.413316 0 0.5625C0 0.711685 0.0592632 0.854759 0.164752 0.960248C0.270242 1.06574 0.413316 1.125 0.5625 1.125H1.87369C2.14538 1.125 2.37825 1.31963 2.42719 1.58681L3.36713 6.75563L2.26294 13.8499C2.23931 14.0361 2.24719 14.2262 2.286 14.4135C2.412 15.0306 2.8935 15.5076 3.501 15.678C3.41828 15.8793 3.37549 16.0948 3.375 16.3125C3.375 17.2429 4.13212 18 5.0625 18C5.99288 18 6.75 17.2429 6.75 16.3125C6.75 16.1061 6.70781 15.9109 6.63975 15.7281C6.97737 15.6763 7.29126 15.5231 7.53975 15.2887C7.85025 15.579 8.253 15.75 8.685 15.75H11.5656C11.9976 15.75 12.3997 15.579 12.7108 15.2887C12.9566 15.5188 13.2677 15.6763 13.6108 15.7281C13.5392 15.9147 13.5016 16.1126 13.5 16.3125C13.5 17.2429 14.2571 18 15.1875 18C16.1179 18 16.875 17.2429 16.875 16.3125C16.875 16.0881 16.8289 15.8743 16.749 15.678C17.3565 15.5076 17.838 15.0306 17.964 14.4141C18.0028 14.2262 18.0107 14.0361 17.9848 13.8341ZM16.8621 14.1885C16.8109 14.4371 16.5544 14.625 16.2647 14.625H13.86C13.73 14.6249 13.6041 14.5798 13.5036 14.4974C13.4031 14.4149 13.3342 14.3002 13.3088 14.1727L12.3643 9.45169C12.3503 9.37901 12.3219 9.30985 12.281 9.24822C12.24 9.1866 12.1871 9.13373 12.1255 9.0927C12.0639 9.05166 11.9948 9.02328 11.9221 9.0092C11.8495 8.99513 11.7747 8.99563 11.7023 9.01069C11.556 9.04 11.4273 9.12622 11.3446 9.25039C11.2619 9.37455 11.2319 9.52647 11.2613 9.67275L11.8238 12.4847L12.1168 13.9517C12.1334 14.0333 12.1317 14.1176 12.1116 14.1985C12.0916 14.2794 12.0539 14.3548 12.0011 14.4192C11.9483 14.4837 11.8818 14.5356 11.8065 14.5712C11.7312 14.6068 11.6489 14.6252 11.5656 14.625H8.685C8.60168 14.6254 8.51933 14.6071 8.44395 14.5716C8.36856 14.5361 8.30204 14.4843 8.24924 14.4198C8.19643 14.3554 8.15866 14.28 8.13868 14.1991C8.1187 14.1182 8.11702 14.0339 8.13375 13.9523L8.42681 12.4858L8.98931 9.67331C9.01818 9.52722 8.98793 9.37564 8.9052 9.25182C8.82248 9.12799 8.69402 9.04202 8.54801 9.01276C8.402 8.9835 8.25034 9.01333 8.12628 9.09571C8.00223 9.1781 7.91591 9.30632 7.88625 9.45225L7.32375 12.2648L7.03069 13.7312L6.94238 14.1733C6.91635 14.3007 6.84719 14.4152 6.74656 14.4974C6.64593 14.5797 6.51999 14.6248 6.39 14.625H3.98531C3.69563 14.625 3.43912 14.4371 3.38794 14.1879C3.37524 14.1286 3.37145 14.0678 3.37669 14.0074L4.419 7.3125H15.3489C15.6279 7.3125 15.8619 7.51275 15.9047 7.78838L16.8705 13.9905C16.8789 14.0541 16.8756 14.1204 16.8621 14.1885Z"></path>
  </g>
</svg>
