<?xml version="1.0" encoding="UTF-8"?>
<svg xmlns="http://www.w3.org/2000/svg" width="14" height="14" viewBox="0 0 14 14">
  <path fill="#1781FE" d="M8.59578 1.44502L7.96664 2.06045L8.1154 2.92963C8.13943 3.07138 8.03087 3.20234 7.88527 3.20234C7.80625 3.20234 7.84729 3.21287 6.99946 2.76542L6.22245 3.17551C6.05182 3.26557 5.85121 3.12044 5.88353 2.92963L6.03228 2.06045L5.40315 1.44502C5.26466 1.30969 5.34225 1.07501 5.53265 1.04718L6.40125 0.920597L6.79004 0.130169C6.8755 -0.0432584 7.12331 -0.0435209 7.20888 0.130169L7.59768 0.920597L8.46628 1.04718C8.65703 1.07507 8.73397 1.30998 8.59578 1.44502ZM4.56474 2.63915L4.53718 2.47844C4.64507 2.37326 4.76596 2.2885 4.71297 2.12543C4.66 1.96245 4.51128 1.96469 4.36325 1.94317L4.29109 1.79695C4.20569 1.62387 3.95809 1.62376 3.87261 1.79695L3.80045 1.94317C3.65134 1.96484 3.5037 1.96233 3.45073 2.12543C3.39776 2.28842 3.51942 2.37402 3.62652 2.47844L3.59896 2.63915C3.56635 2.82935 3.76655 2.97498 3.93753 2.88512L4.08182 2.80922C4.22955 2.88693 4.26178 2.91192 4.33467 2.91192C4.47864 2.91192 4.5893 2.78225 4.56474 2.63915ZM2.52304 3.80584L2.49548 3.64512C2.60337 3.53995 2.72427 3.45519 2.67127 3.29212C2.6183 3.12913 2.46958 3.13138 2.32156 3.10985L2.2494 2.96364C2.164 2.79056 1.9164 2.79044 1.83091 2.96364L1.75875 3.10985C1.60965 3.13152 1.462 3.12901 1.40904 3.29212C1.35607 3.4551 1.47772 3.54071 1.58483 3.64512L1.55726 3.80584C1.52465 3.99603 1.72486 4.14167 1.89583 4.0518L2.04012 3.97591C2.18786 4.05361 2.22009 4.07861 2.29297 4.07861C2.43694 4.07861 2.5476 3.94893 2.52304 3.80584ZM10.3999 2.63915L10.3723 2.47844C10.4802 2.37326 10.6011 2.2885 10.5481 2.12543C10.4951 1.96245 10.3464 1.96469 10.1984 1.94317C10.1317 1.80798 10.0885 1.6669 9.91702 1.6669C9.74566 1.6669 9.70182 1.80903 9.63561 1.94317L9.47426 1.96662C9.28328 1.99438 9.20665 2.22982 9.34493 2.36463L9.46169 2.47844C9.4362 2.62702 9.38822 2.76658 9.52697 2.86735C9.6656 2.9681 9.7846 2.87885 9.91702 2.80922C10.0647 2.88693 10.097 2.91192 10.1699 2.91192C10.3138 2.91192 10.4244 2.78225 10.3999 2.63915ZM12.4416 3.80584L12.414 3.64512C12.5219 3.53995 12.6428 3.45519 12.5898 3.29212C12.5368 3.12913 12.3881 3.13138 12.2401 3.10985C12.1734 2.97466 12.1302 2.83358 11.9587 2.83358C11.7874 2.83358 11.7435 2.97571 11.6773 3.10985L11.516 3.1333C11.325 3.16107 11.2483 3.3965 11.3866 3.53131L11.5034 3.64512C11.4779 3.7937 11.4299 3.93327 11.5687 4.03404C11.7073 4.13478 11.8263 4.04553 11.9587 3.97591C12.1064 4.05361 12.1387 4.07861 12.2116 4.07861C12.3555 4.07861 12.4661 3.94893 12.4416 3.80584ZM3.56238 13.76C3.56638 13.8914 3.46065 14 3.32913 14H2.09936C1.58389 14 1.16602 13.5821 1.16602 13.0666V8.39991C1.16602 7.88444 1.58389 7.46657 2.09936 7.46657H3.32438C3.45324 7.46657 3.55772 7.57128 3.55772 7.70014C3.55745 12.0945 3.5501 13.3574 3.56238 13.76ZM2.77021 9.79994C2.77021 9.73805 2.74562 9.6787 2.70186 9.63494C2.6581 9.59118 2.59875 9.5666 2.53687 9.5666C2.47498 9.5666 2.41563 9.59118 2.37188 9.63494C2.32812 9.6787 2.30353 9.73805 2.30353 9.79994V10.7916C2.30353 10.8535 2.32812 10.9129 2.37188 10.9566C2.41563 11.0004 2.47498 11.025 2.53687 11.025C2.59875 11.025 2.6581 11.0004 2.70186 10.9566C2.74562 10.9129 2.77021 10.8535 2.77021 10.7916V9.79994ZM12.8329 8.39991V13.0666C12.8329 13.5821 12.415 14 11.8995 14H10.6699C10.5385 14 10.4327 13.8914 10.4367 13.76C10.449 13.3581 10.4414 12.097 10.4412 7.70014C10.4412 7.57128 10.5456 7.46657 10.6745 7.46657H11.8995C12.415 7.46657 12.8329 7.88444 12.8329 8.39991ZM11.6953 9.79994C11.6953 9.73805 11.6708 9.6787 11.627 9.63494C11.5832 9.59118 11.5239 9.5666 11.462 9.5666C11.4001 9.5666 11.3408 9.59118 11.297 9.63494C11.2532 9.6787 11.2287 9.73805 11.2287 9.79994V10.7916C11.2287 10.8535 11.2532 10.9129 11.297 10.9566C11.3408 11.0004 11.4001 11.025 11.462 11.025C11.5239 11.025 11.5832 11.0004 11.627 10.9566C11.6708 10.9129 11.6953 10.8535 11.6953 10.7916V9.79994ZM6.41609 14H7.58278C7.64466 14 7.70401 13.9754 7.74777 13.9317C7.79153 13.8879 7.81611 13.8285 7.81611 13.7667V11.5791C7.81611 11.5172 7.79153 11.4579 7.74777 11.4141C7.70401 11.3704 7.64466 11.3458 7.58278 11.3458H6.41609C6.35421 11.3458 6.29486 11.3704 6.2511 11.4141C6.20734 11.4579 6.18276 11.5172 6.18276 11.5791V13.7667C6.18276 13.8285 6.20734 13.8879 6.2511 13.9317C6.29486 13.9754 6.35421 14 6.41609 14ZM9.97448 5.07487V13.7667C9.97448 13.8285 9.94989 13.8879 9.90613 13.9317C9.86238 13.9754 9.80303 14 9.74114 14H8.51612C8.45424 14 8.39489 13.9754 8.35113 13.9317C8.30737 13.8879 8.28279 13.8285 8.28279 13.7667V11.1125C8.28279 11.0506 8.2582 10.9912 8.21444 10.9475C8.17068 10.9037 8.11133 10.8791 8.04945 10.8791H5.94942C5.88753 10.8791 5.82818 10.9037 5.78442 10.9475C5.74067 10.9912 5.71608 11.0506 5.71608 11.1125V13.7667C5.71608 13.8285 5.6915 13.8879 5.64774 13.9317C5.60398 13.9754 5.54463 14 5.48275 14H4.25773C4.19584 14 4.13649 13.9754 4.09273 13.9317C4.04897 13.8879 4.02439 13.8285 4.02439 13.7667V5.07487C4.02439 4.5594 4.44227 4.14152 4.95774 4.14152H9.04113C9.55663 4.14152 9.97448 4.5594 9.97448 5.07487ZM8.16612 8.98326C8.16612 8.92137 8.14153 8.86202 8.09777 8.81826C8.05402 8.7745 7.99467 8.74992 7.93278 8.74992H6.06609C6.0042 8.74992 5.94485 8.7745 5.90109 8.81826C5.85733 8.86202 5.83275 8.92137 5.83275 8.98326C5.83275 9.04514 5.85733 9.10449 5.90109 9.14825C5.94485 9.19201 6.0042 9.21659 6.06609 9.21659H7.93278C7.99467 9.21659 8.05402 9.19201 8.09777 9.14825C8.14153 9.10449 8.16612 9.04514 8.16612 8.98326ZM8.57446 6.73739C8.57446 6.67551 8.54987 6.61616 8.50611 6.5724C8.46236 6.52864 8.403 6.50405 8.34112 6.50405H5.65775C5.59586 6.50405 5.53651 6.52864 5.49275 6.5724C5.44899 6.61616 5.42441 6.67551 5.42441 6.73739C5.42441 6.79927 5.44899 6.85863 5.49275 6.90238C5.53651 6.94614 5.59586 6.97073 5.65775 6.97073H8.34112C8.403 6.97073 8.46236 6.94614 8.50611 6.90238C8.54987 6.85863 8.57446 6.79927 8.57446 6.73739Z"></path>
</svg>
