<?xml version="1.0" encoding="UTF-8"?>
<svg xmlns="http://www.w3.org/2000/svg" width="18" height="18" viewBox="0 0 18 18">
  <g>
    <path d="M10.7367 8.1702C11.3003 7.59294 12.0639 7.52328 12.7556 7.49088C13.8111 7.4412 15.0884 7.35912 16.2316 6.21576C17.7539 4.69368 17.992 2.46402 16.7635 1.2357C15.5352 0.00719741 13.3055 0.245337 11.7834 1.76742C10.6399 2.91096 10.558 4.18806 10.5083 5.24358C10.4759 5.93532 10.4063 6.69888 9.82901 7.26246C9.72101 7.36776 9.61139 7.47306 9.49997 7.57854C9.81677 7.86816 10.1408 8.15724 10.4716 8.4456C10.56 8.35272 10.6484 8.26092 10.7367 8.1702ZM0.997487 14.877C0.377387 15.7111 0.228527 16.5546 0.836567 17.1626C1.44461 17.7707 2.28809 17.6218 3.12239 17.0017C4.19879 16.2014 6.27995 13.3146 8.55821 10.6027C8.2007 10.1903 7.83724 9.783 7.46795 9.38106C4.73555 11.6827 1.80461 13.7911 0.997487 14.877Z"></path>
    <path d="M8.45512 7.6212C8.40074 7.56418 8.36407 7.4926 8.34957 7.41516C8.33506 7.33771 8.34334 7.25772 8.3734 7.18488C8.58389 6.72786 8.64679 6.21662 8.55337 5.7222C8.45995 5.22778 8.21485 4.77474 7.85212 4.42602L3.84712 0.57834C3.80078 0.534331 3.74585 0.500368 3.68577 0.478579C3.6257 0.45679 3.56177 0.447646 3.49799 0.451718C3.43421 0.455791 3.37196 0.472993 3.31515 0.502247C3.25833 0.5315 3.20816 0.572174 3.1678 0.62172C3.09444 0.713238 3.05788 0.828839 3.06527 0.945895C3.07266 1.06295 3.12347 1.17304 3.20776 1.2546L6.69058 4.73724C6.73616 4.78286 6.77167 4.83753 6.79479 4.89773C6.81791 4.95793 6.82814 5.02232 6.82482 5.08672C6.82149 5.15113 6.80469 5.21411 6.77549 5.27161C6.74628 5.32911 6.70534 5.37984 6.6553 5.42052C6.56174 5.49141 6.44538 5.52545 6.32836 5.51616C6.21134 5.50686 6.10182 5.45489 6.02062 5.37012L2.54464 1.89396C2.49902 1.84838 2.44435 1.81287 2.38415 1.78975C2.32394 1.76663 2.25956 1.7564 2.19516 1.75972C2.13075 1.76305 2.06777 1.77985 2.01027 1.80905C1.95277 1.83826 1.90204 1.8792 1.86136 1.92924C1.79047 2.0228 1.75643 2.13916 1.76572 2.25618C1.77502 2.37319 1.82699 2.48272 1.91176 2.56392L5.38792 6.0399C5.4335 6.08552 5.46901 6.14019 5.49213 6.20039C5.51525 6.26059 5.52548 6.32498 5.52216 6.38938C5.51883 6.45379 5.50203 6.51677 5.47283 6.57427C5.44362 6.63177 5.40268 6.6825 5.35264 6.72318C5.25908 6.79407 5.14272 6.82811 5.0257 6.81882C4.90868 6.80952 4.79916 6.75755 4.71796 6.67278L1.24198 3.19662C1.19647 3.1516 1.14213 3.11649 1.08238 3.0935C1.02263 3.07052 0.958772 3.06015 0.894821 3.06306C0.83087 3.06597 0.768214 3.08209 0.7108 3.1104C0.653385 3.13872 0.602456 3.17861 0.561219 3.22758C0.486586 3.31798 0.448235 3.4329 0.453625 3.55C0.459014 3.66711 0.507758 3.77802 0.590379 3.86118L4.42528 7.85286C4.774 8.21559 5.22704 8.46069 5.72146 8.55411C6.21588 8.64753 6.72711 8.58463 7.18414 8.37414C7.25698 8.34408 7.33697 8.3358 7.41442 8.35031C7.49186 8.36481 7.56344 8.40148 7.62046 8.45586C10.6056 11.6136 13.671 15.894 15.026 16.938C15.8646 17.584 16.6833 17.7779 17.2301 17.231C17.777 16.6842 17.5829 15.8656 16.9371 15.0269C15.8933 13.6719 11.6127 10.6063 8.45512 7.6212Z"></path>
  </g>
</svg>
