<?xml version="1.0" encoding="UTF-8"?>
<svg xmlns="http://www.w3.org/2000/svg" width="18" height="18" viewBox="0 0 18 18">
  <path d="M15.9328 7.60218H15.8287V2.85186C15.8286 2.39142 15.6458 1.94983 15.3205 1.62398C14.9952 1.29813 14.5539 1.11463 14.0934 1.11374H3.90937C3.44849 1.11404 3.00656 1.29726 2.68066 1.62315C2.35477 1.94905 2.17155 2.39098 2.17125 2.85186V7.60218H2.07C1.67063 7.60277 1.28782 7.76188 1.00569 8.04454C0.723554 8.32721 0.565163 8.7103 0.565312 9.10968V11.2978C0.565312 11.3006 0.5625 11.3034 0.5625 11.3062C0.5625 11.3091 0.565312 11.3091 0.565312 11.3119V13.5759C0.565312 13.6505 0.594944 13.7221 0.647689 13.7748C0.700433 13.8275 0.77197 13.8572 0.846563 13.8572H1.39781V14.4506C1.39781 14.8038 1.53812 15.1425 1.78786 15.3923C2.03761 15.642 2.37634 15.7823 2.72953 15.7823C3.08273 15.7823 3.42145 15.642 3.6712 15.3923C3.92094 15.1425 4.06125 14.8038 4.06125 14.4506V13.8572H7.39125C7.43062 13.8797 7.47 13.905 7.50938 13.9275V16.605C7.50889 16.6549 7.52198 16.7041 7.54725 16.7472C7.57251 16.7903 7.60899 16.8257 7.65281 16.8497C7.69457 16.8742 7.74222 16.8868 7.79063 16.8862C7.84237 16.8862 7.89305 16.8716 7.93687 16.8441L9 16.1831L10.0603 16.8441C10.1031 16.8699 10.1519 16.8841 10.2019 16.885C10.2518 16.8859 10.3011 16.8736 10.3448 16.8494C10.3885 16.8251 10.425 16.7897 10.4506 16.7468C10.4762 16.7039 10.49 16.655 10.4906 16.605V13.9275C10.53 13.905 10.5694 13.8825 10.6088 13.8572H13.9388V14.4506C13.9388 14.8042 14.0792 15.1433 14.3292 15.3933C14.5792 15.6433 14.9183 15.7837 15.2719 15.7837C15.6254 15.7837 15.9645 15.6433 16.2145 15.3933C16.4645 15.1433 16.605 14.8042 16.605 14.4506V13.8572H17.1562C17.2308 13.8572 17.3024 13.8275 17.3551 13.7748C17.4079 13.7221 17.4375 13.6505 17.4375 13.5759V9.10968C17.4376 8.7103 17.2793 8.32721 16.9971 8.04454C16.715 7.76188 16.3322 7.60277 15.9328 7.60218ZM4.47469 5.32686C4.47458 5.29692 4.48039 5.26724 4.4918 5.23955C4.50321 5.21186 4.51999 5.1867 4.54116 5.16553C4.56234 5.14435 4.5875 5.12757 4.61519 5.11617C4.64288 5.10476 4.67255 5.09894 4.7025 5.09905H7.54875C7.6091 5.09927 7.66692 5.12335 7.70959 5.16602C7.75227 5.2087 7.77634 5.26651 7.77656 5.32686V7.60218H4.47469V5.32686ZM10.2262 5.32686C10.2261 5.29692 10.232 5.26724 10.2434 5.23955C10.2548 5.21186 10.2715 5.1867 10.2927 5.16553C10.3139 5.14435 10.3391 5.12757 10.3668 5.11617C10.3944 5.10476 10.4241 5.09894 10.4541 5.09905H13.3003C13.3607 5.09927 13.4185 5.12335 13.4612 5.16602C13.5038 5.2087 13.5279 5.26651 13.5281 5.32686V7.60218H10.2262V5.32686ZM3.49875 14.4506C3.49875 14.6546 3.41771 14.8503 3.27345 14.9945C3.12919 15.1388 2.93354 15.2198 2.72953 15.2198C2.52552 15.2198 2.32987 15.1388 2.18561 14.9945C2.04135 14.8503 1.96031 14.6546 1.96031 14.4506V13.8572H3.49875V14.4506ZM1.12781 13.2947V11.5875H6.00187C6.06005 12.2198 6.31703 12.8175 6.73594 13.2947H1.12781ZM9.92812 16.0987L9.14906 15.6122C9.10474 15.5846 9.0536 15.57 9.00141 15.57C8.94922 15.57 8.89807 15.5846 8.85375 15.6122L8.07188 16.0987V14.1778C8.67467 14.3765 9.32533 14.3765 9.92812 14.1778V16.0987ZM9 13.7644C8.3506 13.7634 7.72807 13.505 7.26888 13.0458C6.80968 12.5866 6.55128 11.9641 6.55031 11.3147V11.3034C6.55031 10.6537 6.8084 10.0306 7.26781 9.57124C7.72722 9.11183 8.3503 8.85374 9 8.85374C9.6497 8.85374 10.2728 9.11183 10.7322 9.57124C11.1916 10.0306 11.4497 10.6537 11.4497 11.3034V11.3147C11.4487 11.9641 11.1903 12.5866 10.7311 13.0458C10.2719 13.505 9.6494 13.7634 9 13.7644ZM16.0425 14.4506C16.0425 14.655 15.9613 14.851 15.8168 14.9955C15.6723 15.14 15.4763 15.2212 15.2719 15.2212C15.0675 15.2212 14.8715 15.14 14.727 14.9955C14.5824 14.851 14.5013 14.655 14.5013 14.4506V13.8572H16.0425V14.4506ZM16.875 13.2947H11.2641C11.683 12.8175 11.9399 12.2198 11.9981 11.5875H16.875V13.2947ZM16.875 11.025H11.9981C11.9266 10.2794 11.5798 9.58729 11.0254 9.08362C10.4711 8.57994 9.74898 8.30088 9 8.30088C8.25102 8.30088 7.5289 8.57994 6.97457 9.08362C6.42023 9.58729 6.07344 10.2794 6.00187 11.025H1.12781V9.10968C1.12774 8.85951 1.22689 8.61953 1.40352 8.44237C1.58015 8.26521 1.81984 8.16535 2.07 8.16468H15.9328C16.183 8.16535 16.4227 8.26521 16.5993 8.44237C16.7759 8.61953 16.8751 8.85951 16.875 9.10968V11.025Z"></path>
  <path d="M10.3701 10.4062L9.72603 10.3134L9.43915 9.73122C9.3988 9.64929 9.33631 9.58031 9.25877 9.53206C9.18123 9.48382 9.09173 9.45825 9.0004 9.45825C8.90908 9.45825 8.81958 9.48382 8.74204 9.53206C8.6645 9.58031 8.60201 9.64929 8.56165 9.73122L8.27478 10.3134L7.63072 10.4062C7.54009 10.4191 7.4549 10.4571 7.38486 10.516C7.31482 10.575 7.26276 10.6524 7.2346 10.7395C7.20645 10.8266 7.20335 10.9198 7.22565 11.0086C7.24795 11.0974 7.29475 11.1781 7.36072 11.2415L7.82478 11.6943L7.71509 12.3356C7.70331 12.406 7.70697 12.4781 7.72583 12.547C7.74469 12.6158 7.77829 12.6797 7.8243 12.7343C7.87032 12.7889 7.92764 12.8328 7.99232 12.863C8.05699 12.8933 8.12746 12.9091 8.19884 12.9093C8.2781 12.9084 8.35607 12.8892 8.42665 12.8531L9.0004 12.5493L9.57415 12.8531C9.65532 12.8961 9.74701 12.9152 9.8386 12.9083C9.93019 12.9013 10.0179 12.8685 10.0917 12.8137C10.1662 12.7608 10.224 12.6876 10.2584 12.6029C10.2928 12.5182 10.3022 12.4255 10.2857 12.3356L10.176 11.6943L10.6401 11.2415C10.7061 11.1781 10.7529 11.0974 10.7752 11.0086C10.7975 10.9198 10.7944 10.8266 10.7662 10.7395C10.7381 10.6524 10.686 10.575 10.6159 10.516C10.5459 10.4571 10.4607 10.4191 10.3701 10.4062ZM9.75697 11.3203C9.69989 11.3755 9.65723 11.4438 9.63271 11.5193C9.6082 11.5948 9.60257 11.6752 9.61634 11.7534L9.70634 12.285L9.22822 12.0347C9.15797 11.9977 9.07978 11.9784 9.0004 11.9784C8.92103 11.9784 8.84284 11.9977 8.77259 12.0347L8.29447 12.285L8.38447 11.7534C8.39823 11.6752 8.39261 11.5948 8.36809 11.5193C8.34358 11.4438 8.30091 11.3755 8.24384 11.3203L7.85572 10.9406L8.3929 10.8647C8.47168 10.8531 8.54644 10.8225 8.61066 10.7754C8.67489 10.7284 8.72662 10.6663 8.76134 10.5947L9.0004 10.1109L9.23947 10.5947C9.27419 10.6663 9.32592 10.7284 9.39014 10.7754C9.45436 10.8225 9.52912 10.8531 9.6079 10.8647L10.1451 10.9406L9.75697 11.3203Z"></path>
</svg>
