<?xml version="1.0" encoding="UTF-8"?>
<svg xmlns="http://www.w3.org/2000/svg" width="18" height="18" viewBox="0 0 18 18">
  <g>
    <path d="M6.7463 10.4009C6.66771 10.3398 6.04425 9.86826 4.31451 9.75338C4.21936 9.74547 4.12349 9.6781 4.03898 9.62152C3.93145 9.54983 3.81975 9.47469 3.73827 9.37796C3.60583 9.21975 3.45626 9.08688 3.33059 8.9114C2.48962 7.73905 1.66549 7.50369 1.54227 7.45719C1.37816 7.37802 0.74952 7.47547 1.05153 7.89467C1.07068 7.89783 2.01314 9.22177 2.07432 9.32757C2.18257 9.51457 2.30507 9.59101 2.42009 9.722C2.52518 9.84177 2.64149 9.95204 2.74888 10.0698C2.74888 10.0698 2.14615 9.71293 2.00177 9.5566C1.93742 9.4865 1.90647 9.38602 1.85522 9.30281C1.79551 9.20726 1.73325 9.11332 1.66851 9.0211C1.58863 8.90534 1.50622 8.79135 1.42135 8.67921C1.31223 8.53713 1.19894 8.39807 1.08651 8.25843C1.01655 8.17149 0.937522 8.08756 0.879797 7.99673C0.594771 7.54644 0.920248 7.27711 1.23003 7.24313C1.21506 7.19131 1.07255 5.82966 1.04765 5.60107C0.976534 4.94464 0.906285 4.45837 0.529992 4.32608C0.432968 4.29181 0.364446 4.30333 0.292182 4.37963C0.206674 4.46945 0.155715 4.94622 0.131099 5.24766C0.131099 5.24766 -0.033439 6.86511 0.00614805 7.61986C0.0273091 8.02465 1.28474 10.8091 1.64606 11.2397C2.00709 11.6697 4.83303 13.2987 4.83303 13.2987C4.92746 13.3774 5.45073 13.7803 5.45073 14.3086V15.4555L8.49735 15.4591L8.49994 14.4067C8.50699 14.212 8.5401 14.0187 8.56342 13.8249C8.62978 13.6037 8.57666 13.1855 8.54571 13.0231C8.19188 11.444 6.88882 10.5112 6.7463 10.4009ZM17.8692 5.24766C17.8445 4.94608 17.7937 4.46945 17.7082 4.37963C17.6359 4.30333 17.5672 4.29181 17.4702 4.32608C17.0944 4.45851 17.0237 4.94478 16.9527 5.60107C16.9277 5.82966 16.7853 7.19131 16.7702 7.24313C17.0798 7.27711 17.4056 7.54644 17.1204 7.99673C17.0628 8.08771 16.9839 8.17149 16.9138 8.25843C16.8014 8.39807 16.688 8.53713 16.5789 8.67921C16.4939 8.79128 16.4116 8.90528 16.3318 9.0211C16.267 9.11328 16.2047 9.20722 16.145 9.30281C16.094 9.38602 16.0631 9.48621 15.9983 9.5566C15.8538 9.71308 15.2512 10.0698 15.2512 10.0698C15.3586 9.95204 15.4752 9.84177 15.5801 9.722C15.6951 9.59101 15.8175 9.51457 15.9257 9.32757C15.9872 9.22191 16.9297 7.89783 16.9485 7.89467C17.2507 7.47547 16.6218 7.37802 16.4578 7.45719C16.3347 7.50355 15.5106 7.73905 14.6695 8.9114C14.5439 9.08688 14.3942 9.22018 14.2618 9.37796C14.1805 9.47498 14.0685 9.54983 13.9609 9.62152C13.8764 9.6781 13.7806 9.74547 13.6854 9.75338C11.9557 9.86826 11.3324 10.3398 11.2536 10.4009C11.1112 10.5112 9.80818 11.4437 9.4542 13.0227C9.42311 13.1852 9.37013 13.6033 9.43649 13.8245C9.45982 14.0183 9.49307 14.2117 9.49998 14.4062L9.50257 15.4588L12.5492 15.4552V14.3083C12.5492 13.78 13.0725 13.3771 13.1669 13.2985C13.1669 13.2985 15.9927 11.6697 16.3539 11.2393C16.7152 10.8091 17.9723 8.02437 17.9938 7.61957C18.0336 6.86497 17.8692 5.24766 17.8692 5.24766Z"></path>
    <path d="M7.36284 5.25113C8.1112 5.25113 8.71787 4.64447 8.71787 3.8961C8.71787 3.14774 8.1112 2.54108 7.36284 2.54108C6.61448 2.54108 6.00781 3.14774 6.00781 3.8961C6.00781 4.64447 6.61448 5.25113 7.36284 5.25113Z"></path>
    <path d="M10.6378 5.53848C11.3654 5.53848 11.9552 4.94863 11.9552 4.22102C11.9552 3.49341 11.3654 2.90356 10.6378 2.90356C9.91016 2.90356 9.32031 3.49341 9.32031 4.22102C9.32031 4.94863 9.91016 5.53848 10.6378 5.53848Z"></path>
    <path d="M10.5432 10.3475C10.6804 10.2207 10.8236 10.1005 10.9723 9.98732L10.9914 9.97264C11.1383 9.85892 11.476 9.64702 12.113 9.47528L11.9969 8.67649V7.90663C12.1415 8.26723 12.267 8.74789 12.3761 9.41137C12.661 9.34817 12.996 9.29434 13.3869 9.25806C13.0803 7.37041 12.6093 6.52425 11.5246 5.85933C11.5025 5.84566 11.1447 5.65622 10.9767 5.6149L10.6484 5.94542L10.3302 5.6113C10.3292 5.61158 10.328 5.61182 10.3269 5.61202C10.0837 5.67032 9.49547 6.05021 9.18712 6.34431C8.94082 6.04935 8.64283 5.8055 8.27734 5.58107C8.25459 5.56711 7.88651 5.37234 7.71362 5.32988L7.37619 5.6696L7.04899 5.32599L7.04568 5.32656C6.81291 5.40675 6.60648 5.5268 6.36147 5.69177C5.33566 6.38159 4.88855 7.2944 4.58984 9.25561C4.99349 9.29189 5.33811 9.34673 5.63019 9.41137C5.73398 8.73249 5.85303 8.22678 5.98935 7.84214V9.4986L5.98964 9.50335C6.562 9.66948 6.87394 9.86525 7.01286 9.97307L7.03157 9.98732C7.18064 10.101 7.32427 10.2216 7.46199 10.3488C7.87787 9.4177 8.67263 9.23402 8.78679 9.20652C8.78763 9.20649 8.78846 9.20629 8.78923 9.20595L9.00185 9.42922L9.21461 9.20566C9.21548 9.20624 9.21649 9.20624 9.21721 9.20624C9.33107 9.23387 10.1274 9.41597 10.5432 10.3475ZM9.00171 9.15499C8.76136 9.15073 8.5323 9.05226 8.36383 8.88079C8.19537 8.70931 8.10098 8.47854 8.10098 8.23815C8.10098 7.99777 8.19537 7.767 8.36383 7.59552C8.5323 7.42404 8.76136 7.32558 9.00171 7.32132C9.24341 7.32359 9.47444 7.42118 9.64459 7.59286C9.81473 7.76454 9.91023 7.99644 9.91034 8.23815C9.91016 8.47984 9.81463 8.7117 9.6445 8.88336C9.47437 9.05503 9.24338 9.15264 9.00171 9.15499Z"></path>
  </g>
</svg>
