<?xml version="1.0" encoding="UTF-8"?>
<svg xmlns="http://www.w3.org/2000/svg" width="14" height="14" viewBox="0 0 14 14">
  <g fill="#1781FE">
    <path d="M7 9.625C7.69619 9.625 8.36387 9.34844 8.85616 8.85616C9.34844 8.36387 9.625 7.69619 9.625 7C9.625 6.30381 9.34844 5.63613 8.85616 5.14384C8.36387 4.65156 7.69619 4.375 7 4.375C6.30381 4.375 5.63613 4.65156 5.14384 5.14384C4.65156 5.63613 4.375 6.30381 4.375 7C4.375 7.69619 4.65156 8.36387 5.14384 8.85616C5.63613 9.34844 6.30381 9.625 7 9.625Z"></path>
    <path d="M12.2473 4.52369C12.2757 3.68928 12.0648 2.86416 11.6394 2.14577C11.214 1.42737 10.5919 0.845689 9.84665 0.469408C9.10136 0.0931272 8.26396 -0.0620429 7.43333 0.0222192C6.60269 0.106481 5.81352 0.426657 5.15897 0.944942C4.26091 0.780949 3.33405 0.901992 2.50823 1.29112C1.6824 1.68024 0.998989 2.31795 0.553727 3.11491C0.108464 3.91186 -0.076342 4.82815 0.0251979 5.73539C0.126738 6.64263 0.509537 7.49539 1.11997 8.17419C0.787848 9.11824 0.78942 10.1476 1.12442 11.0906C1.45942 12.0337 2.1076 12.8333 2.96086 13.3563C3.81412 13.8792 4.82087 14.0938 5.81322 13.9643C6.80556 13.8348 7.72351 13.369 8.41397 12.6446C8.94805 12.9855 9.57474 13.1524 10.2076 13.1223C10.8406 13.0921 11.4485 12.8664 11.9478 12.4762C12.447 12.086 12.8129 11.5505 12.9951 10.9436C13.1772 10.3368 13.1667 9.68832 12.9648 9.08769C13.3413 8.80049 13.6331 8.41685 13.8093 7.97738C13.9855 7.53791 14.0397 7.05897 13.966 6.59125C13.8922 6.12353 13.6934 5.68445 13.3906 5.32048C13.0877 4.95651 12.6921 4.6812 12.2456 4.52369H12.2473ZM11.3723 4.49394C11.3661 4.68009 11.4194 4.86338 11.5245 5.01713C11.6297 5.17089 11.7811 5.28708 11.9568 5.34882C12.2545 5.45394 12.5182 5.63759 12.7201 5.88034C12.9219 6.12308 13.0544 6.41588 13.1034 6.72775C13.1525 7.03961 13.1163 7.35894 12.9987 7.65192C12.8811 7.9449 12.6865 8.20064 12.4355 8.39207C12.2903 8.50294 12.1835 8.65647 12.13 8.83111C12.0765 9.00576 12.079 9.19278 12.1371 9.36594C12.2817 9.79504 12.2895 10.2584 12.1596 10.6922C12.0296 11.1259 11.7683 11.5086 11.4116 11.7875C11.0549 12.0665 10.6204 12.2278 10.1681 12.2494C9.71587 12.2709 9.26805 12.1516 8.88647 11.9078C8.71553 11.7985 8.51193 11.752 8.31049 11.7763C8.10906 11.8006 7.92232 11.8941 7.78222 12.0408C7.23 12.621 6.49552 12.9941 5.70135 13.0981C4.90719 13.2021 4.1014 13.0305 3.41847 12.612C2.73554 12.1936 2.21679 11.5535 1.94881 10.7987C1.68083 10.044 1.67983 9.22012 1.94597 8.46469C1.99798 8.31656 2.00918 8.15716 1.97839 8.00321C1.9476 7.84926 1.87596 7.70643 1.77097 7.58969C1.28246 7.04666 0.976084 6.36439 0.894776 5.6385C0.813468 4.91261 0.9613 4.17947 1.31756 3.54182C1.67382 2.90416 2.22065 2.39394 2.88143 2.08265C3.54221 1.77136 4.28382 1.67461 5.00234 1.80594C5.12476 1.82822 5.25051 1.82413 5.37122 1.79396C5.49193 1.76378 5.60482 1.7082 5.70234 1.63094C6.22605 1.21647 6.8574 0.960499 7.52188 0.893234C8.18635 0.82597 8.8562 0.950226 9.45234 1.25133C10.0485 1.55244 10.546 2.01783 10.8862 2.59255C11.2265 3.16727 11.3951 3.82646 11.3723 4.49394Z"></path>
  </g>
</svg>
