<svg xmlns="http://www.w3.org/2000/svg" width="80" height="18" viewBox="0 0 80 18" fill="none"><path d="M21.0268 3.23499H29.1201V4.724H25.9334V13.1179H24.1868V4.724H21.0134L21.0268 3.23499ZM28.7734 5.96265H30.2667V7.34626H30.2934C30.3467 7.1486 30.4401 6.96412 30.5734 6.77964C30.7067 6.59516 30.8667 6.42385 31.0667 6.27891C31.2534 6.12078 31.4667 6.00219 31.7067 5.90995C31.9334 5.81771 32.1734 5.765 32.4134 5.765C32.6001 5.765 32.7334 5.77817 32.8001 5.77817C32.8667 5.79135 32.9467 5.80453 33.0134 5.80453V7.3199C32.9067 7.29355 32.7867 7.28037 32.6667 7.26719C32.5467 7.25401 32.4401 7.24084 32.3201 7.24084C32.0534 7.24084 31.8001 7.29355 31.5601 7.39896C31.3201 7.50438 31.1201 7.66251 30.9334 7.86016C30.7601 8.071 30.6134 8.32137 30.5067 8.62444C30.4001 8.92752 30.3468 9.2833 30.3468 9.67861V13.0783H28.7468L28.7734 5.96265ZM40.3467 13.1179H38.7734V12.1164H38.7467C38.5467 12.4853 38.2534 12.7621 37.8667 12.9861C37.4801 13.2101 37.0801 13.3155 36.6801 13.3155C35.7334 13.3155 35.0401 13.0915 34.6134 12.6171C34.1867 12.1559 33.9734 11.4444 33.9734 10.5088V5.96265H35.5734V10.3506C35.5734 10.9832 35.6934 11.4312 35.9467 11.6815C36.1867 11.9451 36.5334 12.0769 36.9734 12.0769C37.3067 12.0769 37.5867 12.0241 37.8134 11.9187C38.0401 11.8133 38.2267 11.6815 38.3601 11.5102C38.5067 11.3389 38.6001 11.1281 38.6667 10.8909C38.7334 10.6537 38.7601 10.3902 38.7601 10.1135V5.96265H40.3601V13.1179H40.3467ZM43.0667 10.825C43.1201 11.2862 43.2934 11.6025 43.6001 11.8001C43.9067 11.9846 44.2801 12.0769 44.7067 12.0769C44.8534 12.0769 45.0267 12.0637 45.2134 12.0373C45.4001 12.011 45.5867 11.9714 45.7467 11.9056C45.9201 11.8397 46.0534 11.7474 46.1601 11.6157C46.2667 11.4839 46.3201 11.3258 46.3067 11.1281C46.2934 10.9304 46.2267 10.7591 46.0801 10.6274C45.9334 10.4956 45.7601 10.4034 45.5467 10.3111C45.3334 10.2321 45.0801 10.1662 44.8001 10.1135C44.5201 10.0608 44.2401 9.99486 43.9467 9.92898C43.6534 9.86309 43.3601 9.78403 43.0801 9.69179C42.8001 9.59955 42.5601 9.48095 42.3334 9.30965C42.1201 9.15153 41.9334 8.95387 41.8134 8.70351C41.6801 8.45314 41.6134 8.16324 41.6134 7.79428C41.6134 7.39896 41.7067 7.08271 41.9067 6.81917C42.0934 6.55563 42.3467 6.34479 42.6401 6.18667C42.9334 6.02854 43.2667 5.90995 43.6267 5.84406C43.9867 5.77817 44.3334 5.75182 44.6534 5.75182C45.0267 5.75182 45.3867 5.79135 45.7201 5.87042C46.0534 5.94948 46.3734 6.06807 46.6401 6.25255C46.9201 6.42386 47.1467 6.66104 47.3201 6.93776C47.5067 7.21448 47.6134 7.55709 47.6667 7.95241H46.0001C45.9201 7.57027 45.7467 7.3199 45.4801 7.18813C45.2001 7.05636 44.8934 6.99047 44.5334 6.99047C44.4267 6.99047 44.2801 7.00365 44.1334 7.01683C43.9734 7.04318 43.8401 7.06954 43.6934 7.12225C43.5601 7.17496 43.4401 7.25402 43.3467 7.34626C43.2534 7.4385 43.2001 7.57027 43.2001 7.72839C43.2001 7.92605 43.2667 8.071 43.4001 8.18959C43.5334 8.30819 43.7067 8.40043 43.9334 8.49267C44.1467 8.57173 44.4001 8.63762 44.6801 8.69033C44.9601 8.74304 45.2534 8.80892 45.5467 8.87481C45.8401 8.94069 46.1201 9.01975 46.4001 9.11199C46.6801 9.20423 46.9334 9.32283 47.1467 9.49413C47.3601 9.65226 47.5467 9.84992 47.6801 10.0871C47.8134 10.3243 47.8801 10.6274 47.8801 10.97C47.8801 11.3916 47.7867 11.7474 47.5867 12.0505C47.3867 12.3404 47.1334 12.5908 46.8267 12.7752C46.5201 12.9597 46.1601 13.0915 45.7867 13.1837C45.4001 13.2628 45.0267 13.3155 44.6534 13.3155C44.2001 13.3155 43.7734 13.2628 43.3867 13.1574C43.0001 13.052 42.6534 12.8938 42.3734 12.6962C42.0934 12.4853 41.8667 12.235 41.7067 11.9187C41.5467 11.6157 41.4534 11.2467 41.4401 10.8119H43.0534V10.825H43.0667ZM48.3334 5.96265H49.5467V3.8016H51.1467V5.94948H52.5867V7.12225H51.1467V10.9436C51.1467 11.1149 51.1601 11.2467 51.1734 11.3785C51.1867 11.4971 51.2267 11.6025 51.2667 11.6815C51.3201 11.7606 51.4001 11.8265 51.4934 11.866C51.6001 11.9056 51.7334 11.9319 51.9201 11.9319C52.0267 11.9319 52.1467 11.9319 52.2534 11.9187C52.3601 11.9056 52.4801 11.8924 52.5867 11.866V13.0915C52.4134 13.1179 52.2401 13.131 52.0667 13.1442C51.8934 13.1706 51.7334 13.1706 51.5467 13.1706C51.1201 13.1706 50.7867 13.131 50.5334 13.052C50.2801 12.9729 50.0801 12.8543 49.9334 12.7094C49.7867 12.5512 49.6934 12.3668 49.6401 12.1427C49.5867 11.9187 49.5601 11.642 49.5467 11.3521V7.13542H48.3334V5.9363V5.96265ZM53.7067 5.96265H55.2134V6.93776H55.2401C55.4667 6.51609 55.7734 6.2262 56.1734 6.04172C56.5734 5.85724 57.0001 5.765 57.4801 5.765C58.0534 5.765 58.5467 5.85724 58.9734 6.06807C59.4 6.26573 59.7467 6.52927 60.0267 6.88506C60.3067 7.22766 60.52 7.63615 60.6534 8.09736C60.7867 8.55856 60.8667 9.05929 60.8667 9.57319C60.8667 10.0607 60.8 10.522 60.68 10.97C60.5467 11.418 60.36 11.8265 60.1067 12.1691C59.8534 12.5117 59.5334 12.7884 59.1334 12.9993C58.7334 13.2101 58.2801 13.3155 57.7467 13.3155C57.5201 13.3155 57.28 13.2892 57.0534 13.2496C56.8267 13.2101 56.6001 13.1442 56.3867 13.052C56.1734 12.9597 55.9734 12.8411 55.8001 12.6962C55.6134 12.5512 55.4667 12.3799 55.3467 12.1955H55.3201V15.7665H53.7201V5.96265H53.7067ZM59.2934 9.54684C59.2934 9.23059 59.2534 8.91434 59.16 8.61126C59.0801 8.30819 58.9467 8.04464 58.7734 7.80746C58.6 7.57027 58.3867 7.38579 58.1467 7.24084C57.8934 7.09589 57.6001 7.03 57.2801 7.03C56.6134 7.03 56.1067 7.25402 55.7601 7.71522C55.4267 8.17642 55.2534 8.79575 55.2534 9.56002C55.2534 9.92898 55.2934 10.2584 55.3867 10.5615C55.4801 10.8646 55.6001 11.1281 55.7867 11.3521C55.9601 11.5761 56.1734 11.7474 56.4267 11.8792C56.6801 12.011 56.9601 12.0769 57.2934 12.0769C57.6667 12.0769 57.9601 11.9978 58.2134 11.8528C58.4667 11.7079 58.6667 11.5102 58.84 11.2862C59 11.049 59.12 10.7855 59.1867 10.4824C59.2534 10.1662 59.2934 9.86309 59.2934 9.54684ZM62.1067 3.23499H63.7067V4.724H62.1067V3.23499ZM62.1067 5.96265H63.7067V13.1179H62.1067V5.96265ZM65.1334 3.23499H66.7334V13.1179H65.1334V3.23499ZM71.6134 13.3155C71.04 13.3155 70.52 13.2233 70.0667 13.0256C69.6134 12.828 69.24 12.5776 68.92 12.2482C68.6134 11.9187 68.3734 11.5102 68.2134 11.049C68.0534 10.5878 67.96 10.0739 67.96 9.53366C67.96 8.9934 68.04 8.49267 68.2134 8.03147C68.3734 7.57027 68.6134 7.17495 68.92 6.83235C69.2267 6.50292 69.6134 6.23938 70.0667 6.0549C70.52 5.87042 71.04 5.765 71.6134 5.765C72.1867 5.765 72.7067 5.85724 73.16 6.0549C73.6134 6.23938 73.9867 6.50292 74.3067 6.83235C74.6134 7.16178 74.8534 7.57027 75.0134 8.03147C75.1734 8.49267 75.2667 8.9934 75.2667 9.53366C75.2667 10.0871 75.1867 10.5878 75.0134 11.049C74.84 11.5102 74.6134 11.9056 74.3067 12.2482C74 12.5776 73.6134 12.8411 73.16 13.0256C72.7067 13.2101 72.2 13.3155 71.6134 13.3155ZM71.6134 12.0637C71.96 12.0637 72.28 11.9846 72.5334 11.8397C72.8 11.6947 73 11.4971 73.1734 11.2599C73.3467 11.0227 73.4667 10.746 73.5467 10.4561C73.6267 10.153 73.6667 9.84992 73.6667 9.53366C73.6667 9.23059 73.6267 8.92752 73.5467 8.62444C73.4667 8.32137 73.3467 8.05782 73.1734 7.82063C73 7.58345 72.7867 7.39897 72.5334 7.25402C72.2667 7.10907 71.96 7.03 71.6134 7.03C71.2667 7.03 70.9467 7.10907 70.6934 7.25402C70.4267 7.39897 70.2267 7.59662 70.0534 7.82063C69.88 8.05782 69.76 8.32137 69.68 8.62444C69.6 8.92752 69.56 9.23059 69.56 9.53366C69.56 9.84992 69.6 10.153 69.68 10.4561C69.76 10.7591 69.88 11.0227 70.0534 11.2599C70.2267 11.4971 70.44 11.6947 70.6934 11.8397C70.96 11.9978 71.2667 12.0637 71.6134 12.0637ZM75.7467 5.96265H76.96V3.8016H78.56V5.94948H80V7.12225H78.56V10.9436C78.56 11.1149 78.5734 11.2467 78.5867 11.3785C78.6 11.4971 78.64 11.6025 78.68 11.6815C78.7334 11.7606 78.8134 11.8265 78.9067 11.866C79.0134 11.9056 79.1467 11.9319 79.3334 11.9319C79.44 11.9319 79.56 11.9319 79.6667 11.9187C79.7734 11.9056 79.8934 11.8924 80 11.866V13.0915C79.8267 13.1179 79.6534 13.131 79.48 13.1442C79.3067 13.1706 79.1467 13.1706 78.96 13.1706C78.5334 13.1706 78.2 13.131 77.9467 13.052C77.6934 12.9729 77.4934 12.8543 77.3467 12.7094C77.2 12.5512 77.1067 12.3668 77.0534 12.1427C77 11.9187 76.9734 11.642 76.96 11.3521V7.13542H75.7467V5.9363V5.96265Z" fill="#110F0F"></path><path d="M19.16 6.87848H11.84L9.58666 0L7.31999 6.87848L0 6.8653L5.91999 11.1215L3.65333 18L9.57332 13.7438L15.4933 18L13.24 11.1215L19.16 6.87848Z" fill="#00B67A"></path><path d="M13.7472 11.5988L13.2405 10.0433L9.58716 12.6666L13.7472 11.5988Z" fill="#005128"></path></svg>