<svg xmlns="http://www.w3.org/2000/svg" width="50" height="50" viewBox="0 0 50 50" fill="none"><g clip-path="url(#clip0_4881_428)"><path d="M22.654 6.29074C22.654 6.29074 23.3638 2.54816 28.0874 0.418823C28.0874 0.418823 28.3549 0.975777 28.5122 1.90392L28.624 3.25885C28.6218 4.48208 28.2939 6.1226 27.3472 7.75414L22.654 6.29074ZM15.7348 6.29074C15.7348 6.29074 15.0249 2.54816 10.3013 0.418823C10.3013 0.418823 9.43964 2.21341 9.89998 4.72818L10.283 6.13158C10.461 6.61887 10.8305 7.48888 11.1291 8.0038L15.7348 6.29074Z" fill="white"></path><path d="M29.1962 12.6709L28.0949 11.9002L27.8188 15.2675L26.96 14.2456C26.96 14.2456 26.713 15.6234 26.2147 16.8129C25.7496 17.927 25.335 18.4128 25.335 18.4128L23.9947 17.2318C23.9947 17.2318 22.9267 20.4482 20.1963 21.3237C20.018 21.3824 19.8362 21.4299 19.6519 21.466C19.5399 21.4861 19.4263 21.496 19.3124 21.4954C19.2829 21.4954 19.254 21.4954 19.2245 21.4911C19.1406 21.4911 19.0568 21.4828 18.9775 21.466C17.7546 21.2357 16.825 20.5364 16.1465 19.774C16.045 19.6599 15.9472 19.5425 15.8533 19.4221C14.9988 18.3333 14.6344 17.2318 14.6344 17.2318L13.4954 18.2369L13.2942 18.4128C13.2942 18.4128 12.9176 17.9689 12.4734 16.9594C12.4518 16.9108 12.4309 16.862 12.4109 16.8128C12.2522 16.427 12.1151 16.0327 12.0002 15.6317C11.9753 15.5438 11.9498 15.4558 11.929 15.3721V15.3678C11.7531 14.727 11.6653 14.2455 11.6653 14.2455L10.8108 15.2673L10.7686 14.7563L10.7646 14.7228L10.5342 11.9L9.43286 12.6707C9.43286 12.5073 9.44964 12.3148 9.47049 12.1095C9.60456 11.029 9.92693 9.9778 10.4713 9.03542C11.2954 7.59589 12.4677 6.38626 13.8807 5.51743L15.2332 4.81793C16.4542 4.30347 17.7657 4.03861 19.0906 4.03894H19.5389C20.8289 4.03894 22.1189 4.31115 23.2498 4.75929L24.4559 5.34149C25.9928 6.21675 27.2742 7.49846 28.1581 9.03542C28.2839 9.25638 28.3999 9.48276 28.5057 9.7139C28.5895 9.89696 28.6636 10.0843 28.7278 10.2751C28.9413 10.8656 29.0795 11.4812 29.1547 12.1095C29.1798 12.3148 29.1962 12.5075 29.1962 12.6709Z" fill="white"></path><path d="M28.0244 12.7441C28.0244 12.7441 29.4356 15.9184 30.1585 16.5896L28.9191 16.5379C28.9191 16.5379 29.9002 18.3969 31.8109 19.1198L30.0552 19.6103C30.0552 19.6103 33.0519 20.9178 35.3222 22.063C40.3241 24.5863 43.3945 27.507 45.2608 30.3002L46.0279 31.5579C46.712 32.7935 47.174 33.9872 47.4803 35.0908L47.8317 36.6743C48.2951 39.4503 47.8184 41.3496 47.8184 41.3496C46.8374 46.7715 41.2648 49.6473 35.1495 49.5802L1.96484 49.2156C3.06638 38.7505 14.0061 33.3855 23.0328 38.1137C23.1996 38.201 23.365 38.2862 23.5294 38.3694L23.5286 35.4672C21.8498 35.0338 17.9084 33.6889 15.597 30.2219C14.1083 27.989 13.6865 25.1098 13.6865 25.1098L12.602 26.9171C11.7759 24.0254 12.2578 21.0822 12.2578 21.0822L11.1219 22.3215C10.8808 20.8413 11.3285 17.4332 11.3285 17.4332L10.4678 18.5003C10.1924 15.6086 10.64 13.5345 10.64 13.5345C10.64 13.5345 15.8356 18.4898 18.9402 18.5169C22.0447 18.544 28.0244 12.7441 28.0244 12.7441Z" fill="white"></path><path d="M18.17 17.7616C17.9958 17.5264 18.1147 17.1881 18.3993 17.1196C18.6102 17.0689 18.8803 17.0289 19.208 17.0289C19.5778 17.0289 19.8909 17.0757 20.1343 17.1322C20.4253 17.1996 20.5514 17.5415 20.371 17.7798L19.5956 18.5205C19.5572 18.5712 19.5075 18.6123 19.4504 18.6405C19.3934 18.6687 19.3305 18.6832 19.2669 18.6828C19.2032 18.6825 19.1405 18.6674 19.0838 18.6386C19.027 18.6098 18.9777 18.5682 18.9398 18.5171L18.17 17.7616ZM21.0026 37.1957C20.796 35.1991 20.6461 34.4511 20.6461 34.4511L17.3525 32.2872C17.3525 32.2872 17.4529 34.2796 17.8659 36.4826L21.0026 37.1957Z" fill="white"></path><path d="M22.6541 6.29074C22.6541 6.29074 23.3639 2.54816 28.0875 0.418823C28.0875 0.418823 28.3549 0.975777 28.5122 1.90392L28.6241 3.25885C28.6219 4.48208 28.2939 6.1226 27.3473 7.75414L22.6541 6.29074Z" fill="#E39454"></path><path d="M22.6541 6.49106C22.6541 6.49106 23.1719 3.26103 26.6173 1.42322C26.6173 1.42322 26.8124 1.9039 26.9271 2.70492L27.0088 3.87425C27.0071 4.93003 26.768 6.3458 26.0775 7.75395L22.6541 6.49106Z" fill="white"></path><path d="M15.7348 6.29074C15.7348 6.29074 15.0249 2.54816 10.3013 0.418823C10.3013 0.418823 9.43964 2.21341 9.89998 4.72818L10.283 6.13158C10.461 6.61887 10.8305 7.48888 11.1291 8.0038L15.7348 6.29074Z" fill="#E39454"></path><path d="M15.7348 6.5175C15.7348 6.5175 15.218 3.27069 11.7791 1.42322C11.7791 1.42322 11.1518 2.98018 11.4869 5.16172L11.7659 6.37919C11.8954 6.80191 12.1644 7.55683 12.3819 8.00344L15.7348 6.5175Z" fill="white"></path><path d="M29.1963 12.6708L28.0949 11.9002L27.8188 15.2675L26.96 14.2456C26.96 14.2456 26.713 15.6234 26.2147 16.8129C25.7497 17.927 25.3351 18.4128 25.3351 18.4128L23.9947 17.2317C23.9947 17.2317 22.9267 20.4482 20.1964 21.3236C20.1796 21.3279 20.1669 21.3279 20.1501 21.3279C20.0378 21.3285 19.9257 21.3187 19.8152 21.2985C19.6099 21.2609 19.4132 21.3363 19.2247 21.4913C19.1408 21.4913 19.0571 21.483 18.9777 21.4662C17.7548 21.2358 16.8252 20.5365 16.1467 19.7741C16.0452 19.66 15.9474 19.5426 15.8535 19.4223C14.9991 18.3334 14.6346 17.2319 14.6346 17.2319L13.4957 18.237L13.2945 18.4129C13.2945 18.4129 12.9179 17.969 12.4736 16.9595C12.452 16.911 12.4311 16.8621 12.4111 16.8129C12.2525 16.4271 12.1153 16.0328 12.0004 15.6319C11.9755 15.5439 11.95 15.456 11.9292 15.3722V15.368C12.1009 13.5085 12.3353 11.4856 12.6412 10.958C13.4662 9.52133 14.6387 8.30691 16.0502 7.43996L17.4031 6.74046C18.6243 6.22742 19.9359 5.964 21.2605 5.96571H21.7083C22.9983 5.96571 24.2883 6.23367 25.4191 6.68198L26.6253 7.26402C27.4003 7.70792 28.1078 9.17811 28.728 10.2752C28.9415 10.8657 29.0797 11.4813 29.1549 12.1097C29.1798 12.3147 29.1963 12.5075 29.1963 12.6708Z" fill="#E39454"></path><path d="M28.0245 12.7441C28.0245 12.7441 29.4357 15.9184 30.1586 16.5896L28.9192 16.5379C28.9192 16.5379 29.9002 18.3969 31.8109 19.1198L30.0553 19.6103C30.0553 19.6103 33.052 20.9178 35.3223 22.063C40.3242 24.5863 43.3946 27.507 45.2609 30.3002L46.028 31.5579C46.7121 32.7935 47.1741 33.9872 47.4804 35.0908L47.8317 36.6743C48.2951 39.4503 47.8185 41.3496 47.8185 41.3496C46.8375 46.7715 41.2649 49.6473 35.1496 49.5802L4.89648 49.2156C5.487 43.6063 11.3304 39.5554 16.9534 39.3096C19.8351 39.1837 22.3807 41.3222 25.9872 42.4576C28.4726 43.2401 35.1457 42.8898 37.2845 41.4635C37.3693 41.4071 36.6064 41.2771 34.5752 41.2978C30.516 41.3391 23.3704 38.1872 23.4458 38.2254L23.5643 35.4236C21.8854 34.9902 20.84 33.6887 18.5286 30.2217C17.04 27.9888 16.6181 25.1097 16.6181 25.1097L15.5337 26.917C14.7076 24.0252 15.1894 21.082 15.1894 21.082L14.0535 22.3213C13.8125 20.8412 14.2601 17.433 14.2601 17.433L13.3994 18.5001C13.124 15.6084 13.5716 13.5343 13.5716 13.5343C13.5716 13.5343 18.7673 18.4896 21.8719 18.5167C24.9765 18.544 28.0245 12.7441 28.0245 12.7441Z" fill="#E39454"></path><path d="M47.8172 41.351C46.8368 46.7705 41.2666 49.6477 35.1481 49.5807L4.89697 49.2163C4.98309 48.4012 5.18182 47.602 5.48749 46.8415L31.3365 47.1515C37.4555 47.2185 43.0256 44.3413 44.0056 38.9177C44.0056 38.9177 44.4829 37.0204 44.0183 34.2438L43.6707 32.6607C43.3607 31.5592 42.9002 30.3656 42.2174 29.126L41.451 27.8695C40.2825 26.1231 38.6449 24.3305 36.3623 22.6091C40.7557 25.0005 43.5283 27.7061 45.262 30.2985L46.0285 31.5592C46.711 32.7946 47.1721 33.9884 47.4817 35.0897L47.8334 36.6728C48.2944 39.4496 47.8172 41.351 47.8172 41.351Z" fill="#B34002" fill-opacity="0.188235"></path><path d="M18.23 17.053C18.23 16.6923 18.1824 16.3307 18.0744 15.9866C17.321 13.5864 16.0886 13.3967 13.2172 13.3967L10.7065 13.5345V15.2974L11.6669 14.2445C11.6669 14.2445 12.3888 17.4851 13.2128 18.3046C13.2128 18.3046 14.215 17.2908 14.4683 17.3774C14.7215 17.4641 16.0496 21.3483 19.2405 21.4926C22.4314 21.6368 23.915 17.4447 23.915 17.4447L25.3336 18.4115C25.3336 18.4115 27.0301 15.4147 27.0089 14.3008L27.7358 15.1684L27.9584 13.5418H25.8482C22.9766 13.5418 21.7346 13.6386 20.4437 15.9864C20.27 16.3025 20.2881 16.6922 20.2881 17.0529L18.23 17.053Z" fill="white"></path><path d="M20.2882 17.4718C20.2332 17.4719 20.1788 17.461 20.1279 17.44C20.0771 17.419 20.0309 17.3881 19.992 17.3492C19.9531 17.3103 19.9223 17.2641 19.9012 17.2133C19.8802 17.1625 19.8694 17.108 19.8694 17.053L19.8691 16.9613C19.8675 16.5898 19.8657 16.1686 20.0769 15.7847C21.4781 13.236 22.9388 13.123 25.8483 13.123C25.9594 13.123 26.0659 13.1671 26.1444 13.2457C26.223 13.3242 26.2671 13.4307 26.2671 13.5418C26.2671 13.6529 26.223 13.7594 26.1444 13.838C26.0659 13.9165 25.9594 13.9606 25.8483 13.9606C23.0152 13.9606 21.9762 14.0684 20.8108 16.1883C20.7042 16.382 20.7055 16.6617 20.7067 16.9578L20.707 17.053C20.707 17.108 20.6962 17.1625 20.6752 17.2133C20.6541 17.2641 20.6233 17.3103 20.5844 17.3492C20.5455 17.3881 20.4993 17.4189 20.4485 17.44C20.3977 17.461 20.3432 17.4718 20.2882 17.4718ZM18.2301 17.4718C18.1751 17.4719 18.1206 17.461 18.0698 17.44C18.019 17.419 17.9728 17.3881 17.9339 17.3492C17.895 17.3103 17.8641 17.2641 17.8431 17.2133C17.8221 17.1625 17.8112 17.108 17.8113 17.053C17.8113 16.7171 17.7653 16.4003 17.6748 16.1118C17.0099 13.9935 16.0411 13.8155 13.2172 13.8155C13.1061 13.8155 12.9996 13.7714 12.921 13.6929C12.8425 13.6143 12.7983 13.5078 12.7983 13.3967C12.7983 13.2856 12.8425 13.1791 12.921 13.1006C12.9996 13.022 13.1061 12.9779 13.2172 12.9779C15.9965 12.9779 17.6111 13.1118 18.474 15.8611C18.5901 16.2308 18.6489 16.6318 18.6489 17.053C18.6489 17.1641 18.6048 17.2706 18.5262 17.3492C18.4477 17.4277 18.3412 17.4718 18.2301 17.4718Z" fill="#333333"></path><path d="M18.17 17.7616C17.9958 17.5264 18.1147 17.1881 18.3993 17.1196C18.6102 17.0689 18.8803 17.0289 19.208 17.0289C19.5778 17.0289 19.8909 17.0757 20.1342 17.1322C20.4253 17.1996 20.5514 17.5415 20.371 17.7798L19.5956 18.5205C19.5572 18.5712 19.5075 18.6123 19.4504 18.6405C19.3934 18.6687 19.3305 18.6832 19.2669 18.6828C19.2032 18.6825 19.1405 18.6674 19.0838 18.6386C19.027 18.6098 18.9777 18.5682 18.9398 18.5171L18.17 17.7616Z" fill="#FF9691"></path><path d="M19.2691 19.1015H19.2647C19.1424 19.1014 19.0216 19.074 18.9113 19.0212C18.8009 18.9685 18.7038 18.8917 18.6269 18.7966L17.8767 18.0606C17.8611 18.0453 17.8466 18.0287 17.8335 18.0111C17.7515 17.9009 17.6982 17.772 17.6784 17.6361C17.6585 17.5001 17.6728 17.3614 17.7198 17.2323C17.766 17.1043 17.8434 16.9897 17.9449 16.899C18.0463 16.8082 18.1687 16.7441 18.3011 16.7123C18.8944 16.5698 19.6064 16.5796 20.2286 16.724C20.3635 16.7549 20.4885 16.8192 20.5923 16.9108C20.696 17.0024 20.7752 17.1186 20.8225 17.2486C20.8699 17.3787 20.8839 17.5186 20.8634 17.6554C20.8428 17.7923 20.7883 17.9219 20.7049 18.0323C20.6913 18.0502 20.6763 18.0669 20.6601 18.0825L19.9049 18.8037C19.8276 18.8973 19.7305 18.9726 19.6205 19.0241C19.5106 19.0756 19.3905 19.102 19.2691 19.1015ZM18.5225 17.5208L19.233 18.2179C19.2488 18.2333 19.2632 18.2499 19.2762 18.2676C19.2898 18.2498 19.29 18.233 19.3062 18.2174L20.0305 17.5257C19.5489 17.4376 18.9815 17.4154 18.5225 17.5208ZM21.1513 12.9148C21.086 12.9147 21.0217 12.8994 20.9633 12.8701C20.905 12.8408 20.8543 12.7982 20.8154 12.7458C20.7764 12.6934 20.7502 12.6327 20.7388 12.5684C20.7275 12.5041 20.7313 12.438 20.75 12.3755C20.9391 11.7446 21.791 10.6248 23.6625 10.8999C23.7169 10.9079 23.7692 10.9265 23.8164 10.9547C23.8637 10.983 23.9048 11.0202 23.9377 11.0643C23.9705 11.1085 23.9943 11.1586 24.0077 11.2119C24.0211 11.2653 24.0239 11.3207 24.0159 11.3751C24.0079 11.4295 23.9893 11.4818 23.9611 11.5291C23.9329 11.5763 23.8956 11.6174 23.8515 11.6503C23.8074 11.6831 23.7572 11.7069 23.7039 11.7203C23.6505 11.7337 23.5951 11.7365 23.5407 11.7285C21.9093 11.4885 21.5661 12.5699 21.5522 12.616C21.5264 12.7023 21.4734 12.778 21.4012 12.8318C21.329 12.8856 21.2414 12.9147 21.1513 12.9148Z" fill="#333333"></path><path d="M22.2888 12.8272C22.2338 12.8272 22.1793 12.8164 22.1285 12.7953C22.0777 12.7743 22.0315 12.7435 21.9926 12.7046C21.9537 12.6657 21.9228 12.6195 21.9018 12.5687C21.8808 12.5178 21.8699 12.4634 21.87 12.4084V11.4456C21.87 11.3346 21.9141 11.228 21.9926 11.1495C22.0712 11.071 22.1777 11.0268 22.2888 11.0268C22.3999 11.0268 22.5064 11.071 22.5849 11.1495C22.6635 11.228 22.7076 11.3346 22.7076 11.4456V12.4084C22.7076 12.4634 22.6968 12.5178 22.6758 12.5687C22.6547 12.6195 22.6239 12.6657 22.585 12.7046C22.5461 12.7435 22.4999 12.7743 22.4491 12.7953C22.3983 12.8164 22.3438 12.8272 22.2888 12.8272ZM17.3603 12.9148C17.2709 12.9147 17.1839 12.886 17.1119 12.833C17.04 12.7799 16.9869 12.7053 16.9604 12.6199C16.9221 12.5021 16.547 11.4972 14.9709 11.7287C14.9165 11.7367 14.8611 11.7339 14.8077 11.7205C14.7544 11.707 14.7042 11.6832 14.6601 11.6504C14.616 11.6176 14.5787 11.5764 14.5505 11.5292C14.5223 11.482 14.5037 11.4297 14.4957 11.3753C14.4877 11.3209 14.4905 11.2654 14.5039 11.2121C14.5173 11.1588 14.5411 11.1086 14.5739 11.0645C14.6067 11.0204 14.6479 10.9831 14.6951 10.9549C14.7423 10.9267 14.7947 10.908 14.8491 10.9C16.7192 10.6248 17.5725 11.7448 17.7616 12.3757C17.7804 12.4382 17.7843 12.5043 17.773 12.5686C17.7617 12.633 17.7355 12.6938 17.6965 12.7461C17.6575 12.7985 17.6068 12.8411 17.5484 12.8704C17.49 12.8997 17.4256 12.9149 17.3603 12.9148Z" fill="#333333"></path><path d="M16.2229 12.8272C16.1679 12.8273 16.1135 12.8164 16.0626 12.7954C16.0118 12.7744 15.9656 12.7435 15.9267 12.7046C15.8878 12.6657 15.857 12.6195 15.836 12.5687C15.8149 12.5179 15.8041 12.4634 15.8041 12.4084V11.4457C15.8041 11.3346 15.8482 11.2281 15.9268 11.1495C16.0053 11.071 16.1119 11.0269 16.2229 11.0269C16.334 11.0269 16.4405 11.071 16.5191 11.1495C16.5976 11.2281 16.6418 11.3346 16.6418 11.4457V12.4084C16.6418 12.5195 16.5976 12.626 16.5191 12.7046C16.4405 12.7831 16.334 12.8272 16.2229 12.8272ZM19.2558 20.1759C19.2008 20.176 19.1464 20.1651 19.0955 20.1441C19.0447 20.1231 18.9985 20.0922 18.9596 20.0533C18.9208 20.0144 18.8899 19.9682 18.8689 19.9174C18.8478 19.8666 18.837 19.8121 18.837 19.7571V18.7913C18.837 18.6803 18.8812 18.5737 18.9597 18.4952C19.0382 18.4167 19.1448 18.3725 19.2558 18.3725C19.3669 18.3725 19.4735 18.4167 19.552 18.4952C19.6305 18.5737 19.6747 18.6803 19.6747 18.7913V19.7571C19.6747 19.8121 19.6638 19.8666 19.6428 19.9174C19.6217 19.9682 19.5909 20.0144 19.552 20.0533C19.5131 20.0922 19.4669 20.123 19.4161 20.1441C19.3653 20.1651 19.3108 20.1759 19.2558 20.1759ZM26.1995 6.89633C26.1274 6.89629 26.0565 6.87764 25.9938 6.8422C25.931 6.80675 25.8785 6.75571 25.8412 6.69401C25.804 6.63232 25.7833 6.56205 25.7811 6.49C25.779 6.41796 25.7954 6.34658 25.829 6.28277C26.4435 5.11106 26.5907 3.72936 26.5922 3.71546C26.6038 3.60517 26.6586 3.50395 26.7445 3.43385C26.8305 3.36375 26.9406 3.33046 27.051 3.34122C27.1614 3.35239 27.2629 3.40696 27.3331 3.49294C27.4033 3.57891 27.4365 3.68925 27.4254 3.7997C27.4191 3.86241 27.2627 5.35259 26.5707 6.67175C26.5352 6.73954 26.4819 6.79631 26.4164 6.8359C26.351 6.87549 26.2759 6.8964 26.1995 6.89633ZM12.3153 7.06447C12.1775 7.06447 12.0424 6.9965 11.9626 6.87193C11.228 5.72836 10.9841 4.0936 10.9741 4.02461C10.9662 3.97018 10.9691 3.91472 10.9826 3.86141C10.9961 3.80809 11.02 3.75796 11.0529 3.71387C11.1193 3.62484 11.2184 3.56585 11.3283 3.54986C11.4383 3.53388 11.55 3.56223 11.6391 3.62866C11.6831 3.66156 11.7203 3.70281 11.7485 3.75007C11.7766 3.79733 11.7952 3.84967 11.8031 3.9041C11.8053 3.91919 12.0321 5.43039 12.6673 6.41921C12.708 6.48245 12.7309 6.55548 12.7337 6.63064C12.7364 6.7058 12.7188 6.7803 12.6828 6.84633C12.6468 6.91235 12.5937 6.96745 12.529 7.00583C12.4643 7.04422 12.3905 7.06447 12.3153 7.06447Z" fill="#333333"></path><path d="M21.0026 37.1956C20.796 35.199 20.6461 34.451 20.6461 34.451L17.3525 32.2871C17.3525 32.2871 17.4529 34.2795 17.8659 36.4826L21.0026 37.1956Z" fill="#E39454"></path><path d="M17.8654 36.9018C17.7678 36.9016 17.6733 36.8674 17.5982 36.805C17.5231 36.7426 17.4722 36.656 17.4542 36.5601C17.0406 34.3543 16.9384 32.3909 16.9342 32.3083C16.9316 32.1991 16.9717 32.0933 17.046 32.0132C17.1203 31.9332 17.2229 31.8853 17.332 31.8798C17.441 31.8743 17.5479 31.9116 17.6299 31.9838C17.7119 32.0559 17.7624 32.1572 17.7708 32.2661C17.7718 32.2858 17.8749 34.2578 18.2776 36.4055C18.289 36.466 18.2869 36.5284 18.2715 36.588C18.2561 36.6477 18.2276 36.7032 18.1883 36.7506C18.1489 36.798 18.0995 36.8361 18.0437 36.8623C17.9879 36.8884 17.927 36.9019 17.8654 36.9018ZM21.002 37.6145C20.8985 37.6143 20.7987 37.5759 20.7218 37.5065C20.645 37.4371 20.5966 37.3417 20.5859 37.2387C20.3849 35.2955 20.2368 34.5405 20.2352 34.5331C20.217 34.4256 20.2413 34.3152 20.3031 34.2254C20.3649 34.1356 20.4592 34.0734 20.5662 34.052C20.6731 34.0306 20.7841 34.0518 20.8757 34.1109C20.9672 34.1701 21.0321 34.2626 21.0566 34.3688C21.0629 34.4002 21.2127 35.1592 21.419 37.1526C21.425 37.211 21.4188 37.2699 21.4006 37.3257C21.3824 37.3815 21.3526 37.4328 21.3133 37.4764C21.274 37.5199 21.226 37.5547 21.1724 37.5785C21.1187 37.6023 21.0607 37.6145 21.002 37.6145ZM23.446 38.6443C23.3893 38.6443 23.3332 38.6329 23.2811 38.6106C23.229 38.5884 23.182 38.5558 23.1428 38.5148C23.1037 38.4739 23.0732 38.4254 23.0533 38.3724C23.0335 38.3193 23.0245 38.2628 23.0271 38.2062C23.2304 33.8056 22.9953 29.6163 22.9931 29.5744C22.9867 29.4635 23.0247 29.3546 23.0986 29.2717C23.1725 29.1888 23.2763 29.1386 23.3872 29.1323C23.4981 29.1259 23.607 29.1639 23.6899 29.2378C23.7728 29.3117 23.823 29.4155 23.8293 29.5264C23.8317 29.5686 24.0692 33.7994 23.8641 38.2448C23.8591 38.3524 23.8129 38.4539 23.735 38.5283C23.6571 38.6027 23.5536 38.6442 23.446 38.6443ZM26.73 40.1455C26.6666 40.1454 26.604 40.1309 26.547 40.1032C26.4899 40.0754 26.4399 40.035 26.4007 39.9851C26.3615 39.9352 26.3342 39.8771 26.3207 39.8151C26.3072 39.7531 26.308 39.6889 26.3229 39.6272C26.7499 37.8802 27.095 36.0316 27.3489 34.1329C27.3562 34.0784 27.3741 34.0258 27.4017 33.9783C27.4293 33.9307 27.466 33.889 27.5097 33.8556C27.5534 33.8222 27.6033 33.7977 27.6564 33.7836C27.7096 33.7695 27.765 33.766 27.8195 33.7733C27.8741 33.7805 27.9266 33.7985 27.9742 33.8261C28.0218 33.8537 28.0635 33.8904 28.0969 33.9341C28.1303 33.9778 28.1547 34.0277 28.1688 34.0808C28.183 34.134 28.1865 34.1894 28.1792 34.2439C27.9214 36.1719 27.5707 38.0501 27.1368 39.826C27.1145 39.9171 27.0622 39.998 26.9885 40.0559C26.9148 40.1138 26.8238 40.1453 26.73 40.1455ZM27.9351 33.1907C27.8763 33.1907 27.8182 33.1784 27.7645 33.1545C27.7108 33.1306 27.6627 33.0957 27.6234 33.052C27.584 33.0083 27.5543 32.9568 27.5362 32.9008C27.5181 32.8449 27.512 32.7858 27.5182 32.7273C27.6387 31.5995 27.6745 30.9048 27.6748 30.8978C27.6773 30.8428 27.6907 30.7888 27.7142 30.739C27.7377 30.6892 27.7708 30.6445 27.8117 30.6076C27.8525 30.5706 27.9003 30.5422 27.9522 30.5238C28.0041 30.5054 28.0591 30.4975 28.1141 30.5005C28.1691 30.5032 28.2229 30.5168 28.2726 30.5403C28.3223 30.5639 28.3669 30.597 28.4038 30.6378C28.4406 30.6786 28.4691 30.7262 28.4876 30.778C28.5061 30.8298 28.5142 30.8847 28.5114 30.9397C28.5101 30.9687 28.4745 31.6626 28.3512 32.8163C28.3402 32.919 28.2916 33.014 28.2149 33.0831C28.1381 33.1522 28.0384 33.1905 27.9351 33.1907ZM29.6977 41.0865C29.6375 41.0866 29.5781 41.0737 29.5233 41.0487C29.4686 41.0238 29.4199 40.9873 29.3805 40.9418C29.3411 40.8964 29.312 40.8429 29.2951 40.7852C29.2782 40.7274 29.2739 40.6667 29.2826 40.6072C29.823 36.9007 31.9801 35.0033 33.6945 34.0639C33.7427 34.0375 33.7957 34.0209 33.8504 34.0149C33.9051 34.0089 33.9604 34.0138 34.0132 34.0292C34.0659 34.0447 34.1152 34.0703 34.158 34.1048C34.2009 34.1392 34.2366 34.1818 34.263 34.23C34.2894 34.2783 34.3061 34.3312 34.312 34.3859C34.318 34.4406 34.3131 34.4959 34.2977 34.5487C34.2823 34.6015 34.2566 34.6507 34.2221 34.6936C34.1877 34.7364 34.1451 34.7721 34.0969 34.7985C31.8462 36.0314 30.5053 38.0263 30.1114 40.7279C30.097 40.8274 30.0473 40.9184 29.9713 40.9842C29.8954 41.0501 29.7982 41.0864 29.6977 41.0865ZM35.1457 34.2811C35.0474 34.2811 34.9522 34.2467 34.8768 34.1837C34.8014 34.1206 34.7505 34.0331 34.7331 33.9364C34.7157 33.8396 34.7329 33.7399 34.7816 33.6545C34.8304 33.5692 34.9076 33.5037 34.9998 33.4695C36.2516 33.0044 37.2115 32.9249 37.2517 32.9217C37.3064 32.9174 37.3615 32.9239 37.4138 32.9409C37.466 32.9578 37.5144 32.9849 37.5562 33.0206C37.598 33.0563 37.6323 33.0999 37.6572 33.1488C37.6822 33.1978 37.6972 33.2512 37.7015 33.306C37.7103 33.4166 37.6747 33.5263 37.6028 33.6108C37.5308 33.6953 37.4282 33.7478 37.3176 33.7568C37.3088 33.7575 36.4266 33.8331 35.2911 34.2548C35.2446 34.2721 35.1954 34.281 35.1457 34.2811Z" fill="#333333"></path><path d="M23.5289 35.8861C23.4941 35.8861 23.459 35.8817 23.4238 35.8727C21.7667 35.4449 17.6529 34.0607 15.2485 30.4542C14.2827 29.0055 13.7542 27.3189 13.4922 26.2474L12.9612 27.1325C12.9192 27.2025 12.8576 27.2587 12.7841 27.2942C12.7106 27.3297 12.6283 27.343 12.5473 27.3323C12.4664 27.3216 12.3903 27.2875 12.3285 27.2341C12.2667 27.1808 12.2218 27.1105 12.1995 27.032C11.6867 25.2379 11.6591 23.4447 11.7206 22.2879L11.4306 22.6043C11.3775 22.6622 11.3091 22.7039 11.2333 22.7248C11.1575 22.7457 11.0774 22.7448 11.0021 22.7223C10.9268 22.6998 10.8594 22.6566 10.8075 22.5975C10.7556 22.5385 10.7213 22.4661 10.7086 22.3885C10.5615 21.4845 10.6545 19.9389 10.7583 18.8019C10.7015 18.8566 10.6305 18.8942 10.5534 18.9104C10.4762 18.9265 10.3961 18.9206 10.3222 18.8932C10.2483 18.8658 10.1836 18.8181 10.1356 18.7556C10.0876 18.6931 10.0582 18.6183 10.0508 18.5399C9.77267 15.6171 10.2117 13.5334 10.2305 13.4461C10.242 13.3923 10.2641 13.3413 10.2954 13.2961C10.3266 13.2508 10.3665 13.2122 10.4127 13.1824C10.4589 13.1525 10.5106 13.1321 10.5647 13.1222C10.6188 13.1123 10.6743 13.1132 10.7281 13.1247C10.7819 13.1363 10.8328 13.1584 10.8781 13.1896C10.9233 13.2209 10.962 13.2608 10.9918 13.307C11.0217 13.3532 11.0421 13.4048 11.052 13.4589C11.0619 13.5131 11.061 13.5686 11.0495 13.6224C11.0457 13.6398 10.724 15.1759 10.8135 17.4044L11.0025 17.17C11.0599 17.0991 11.1389 17.0489 11.2274 17.0269C11.316 17.005 11.4093 17.0125 11.4932 17.0485C11.577 17.0844 11.6469 17.1467 11.6921 17.2259C11.7373 17.3052 11.7554 17.397 11.7437 17.4875C11.7401 17.5148 11.451 19.7428 11.4696 21.3221L11.9491 20.7992C12.01 20.7326 12.0908 20.6875 12.1794 20.6705C12.268 20.6536 12.3597 20.6657 12.4409 20.7051C12.5221 20.7445 12.5883 20.8091 12.6298 20.8892C12.6713 20.9693 12.6858 21.0607 12.6712 21.1497C12.6669 21.1748 12.3164 23.3997 12.773 25.8181L13.3273 24.8943C13.3717 24.8202 13.4379 24.7616 13.5169 24.7267C13.5959 24.6917 13.6838 24.682 13.7685 24.6989C13.8532 24.7158 13.9306 24.7586 13.9901 24.8212C14.0495 24.8839 14.0882 24.9634 14.1007 25.0489C14.1049 25.0769 14.5288 27.8649 15.9454 29.9896C18.1895 33.3557 22.0694 34.658 23.6333 35.0617C23.732 35.0871 23.8181 35.1477 23.8754 35.232C23.9327 35.3164 23.9572 35.4188 23.9444 35.5199C23.9316 35.6211 23.8823 35.7141 23.8058 35.7815C23.7293 35.8489 23.6308 35.8861 23.5289 35.8861Z" fill="#333333"></path><path d="M17.8063 36.4828C10.2336 35.5879 2.85892 40.722 1.96484 49.2156L18.5375 49.3977L18.6265 49.2758C16.9053 47.4168 12.7054 46.6251 12.7054 46.6251C12.7054 46.6251 13.6132 46.0514 15.1151 45.5149C16.079 45.1707 17.5248 44.9727 17.5248 44.9727C15.7348 43.5958 9.81372 43.527 9.81372 43.527C10.6519 42.7383 11.5607 42.1246 12.4529 41.6476L13.6232 41.09C15.8255 40.1601 17.6624 40.0157 17.6624 40.0157C15.3216 39.0518 12.8775 39.224 12.8775 39.224C14.9429 37.0898 17.6884 36.4959 17.6884 36.4959L17.8063 36.4828Z" fill="white"></path><path d="M18.6264 49.6948C18.5687 49.6949 18.5116 49.6831 18.4587 49.66C18.4058 49.6368 18.3583 49.603 18.3191 49.5606C16.7103 47.8231 12.6684 47.0445 12.6277 47.0368C12.5451 47.0213 12.469 46.9812 12.4095 46.9218C12.3499 46.8624 12.3097 46.7865 12.2939 46.7039C12.2781 46.6212 12.2875 46.5358 12.321 46.4586C12.3545 46.3815 12.4104 46.3162 12.4815 46.2712C12.5203 46.2468 13.446 45.6663 14.974 45.1206C15.3517 44.9856 15.7937 44.8733 16.2 44.7853C14.3067 44.149 11.1137 43.9612 9.80856 43.9458C9.72505 43.9449 9.64372 43.919 9.57503 43.8715C9.50634 43.824 9.45343 43.757 9.4231 43.6792C9.39278 43.6014 9.38642 43.5163 9.40485 43.4348C9.42328 43.3533 9.46565 43.2793 9.52652 43.2221C10.3182 42.4771 11.2364 41.8231 12.2552 41.2783C12.3037 41.2524 12.3568 41.2363 12.4116 41.2309C12.4663 41.2255 12.5215 41.2309 12.5742 41.2469C12.6268 41.2628 12.6758 41.289 12.7183 41.3239C12.7608 41.3588 12.796 41.4017 12.822 41.4502C12.8479 41.4987 12.864 41.5518 12.8694 41.6066C12.8748 41.6613 12.8694 41.7165 12.8534 41.7692C12.8375 41.8218 12.8113 41.8708 12.7764 41.9133C12.7415 41.9558 12.6986 41.991 12.6501 42.017C12.0372 42.3433 11.453 42.721 10.9038 43.1458C12.7377 43.2385 16.371 43.557 17.78 44.6411C17.8455 44.6914 17.8946 44.76 17.9213 44.8382C17.9479 44.9164 17.9507 45.0007 17.9295 45.0806C17.9083 45.1604 17.8639 45.2322 17.802 45.2869C17.7401 45.3416 17.6634 45.3767 17.5815 45.3878C17.5674 45.3897 16.1666 45.5843 15.2559 45.9095C14.7917 46.075 14.3358 46.263 13.8898 46.4726C15.2979 46.8477 17.6891 47.6475 18.9337 48.9914C18.9892 49.0512 19.0259 49.1258 19.0396 49.2062C19.0532 49.2865 19.0431 49.3691 19.0105 49.4438C18.9778 49.5185 18.9241 49.582 18.8559 49.6266C18.7877 49.6712 18.7079 49.6949 18.6264 49.6948ZM13.6233 41.5088C13.5266 41.5089 13.4329 41.4755 13.358 41.4144C13.2831 41.3532 13.2317 41.268 13.2125 41.1732C13.1933 41.0784 13.2075 40.9799 13.2526 40.8944C13.2978 40.8089 13.3712 40.7416 13.4603 40.7041C14.2454 40.3733 15.0559 40.1062 15.8839 39.9054C14.271 39.5547 12.924 39.6405 12.9064 39.6417C12.8218 39.6477 12.7375 39.6279 12.6645 39.5848C12.5915 39.5417 12.5333 39.4774 12.4977 39.4005C12.4619 39.3237 12.4503 39.2379 12.4643 39.1544C12.4784 39.0709 12.5174 38.9936 12.5764 38.9327C14.7055 36.7325 17.4824 36.1118 17.5996 36.0864C17.7082 36.0629 17.8216 36.0834 17.915 36.1435C18.0084 36.2036 18.0741 36.2984 18.0976 36.4069C18.1211 36.5155 18.1006 36.6289 18.0405 36.7223C17.9804 36.8157 17.8856 36.8814 17.7771 36.9049C17.7542 36.91 15.7578 37.3603 13.9562 38.8075C14.9198 38.8551 16.3818 39.0353 17.822 39.6283C17.9092 39.664 17.9817 39.7281 18.028 39.8102C18.0742 39.8923 18.0914 39.9876 18.0768 40.0806C18.0622 40.1737 18.0166 40.2591 17.9474 40.3231C17.8782 40.387 17.7895 40.4258 17.6956 40.4331C17.6778 40.4344 15.8932 40.5859 13.786 41.4756C13.7328 41.4982 13.6776 41.5088 13.6233 41.5088Z" fill="#333333"></path><path d="M35.3668 50.0002C35.2927 50.0002 35.2191 49.9999 35.1449 49.999L1.96006 49.6345C1.90176 49.6338 1.84425 49.621 1.79119 49.5968C1.73813 49.5727 1.6907 49.5377 1.65193 49.4942C1.61316 49.4506 1.58391 49.3995 1.56604 49.344C1.54818 49.2885 1.5421 49.2299 1.54819 49.1719C2.07345 44.1822 4.83381 40.0035 9.12164 37.7071C13.4676 35.3794 18.7404 35.3928 23.2272 37.7428C34.4027 43.5968 40.3699 39.8673 40.4288 39.829C40.5218 39.7684 40.635 39.7472 40.7435 39.7699C40.8521 39.7926 40.9473 39.8574 41.0082 39.9501C41.069 40.0428 41.0906 40.1557 41.0682 40.2643C41.0458 40.3728 40.9812 40.468 40.8887 40.529C40.6329 40.6974 34.4896 44.5878 22.8384 38.4847C18.5983 36.2637 13.6183 36.2489 9.51707 38.4454C5.60924 40.5383 3.04769 44.2953 2.43633 48.8021L35.1542 49.1616C40.5353 49.2167 46.4058 46.8049 47.4064 41.2751C47.4167 41.23 47.8603 39.3886 47.4186 36.7433C47.4003 36.6338 47.4263 36.5214 47.4908 36.431C47.5553 36.3406 47.6532 36.2795 47.7627 36.2612C47.8723 36.2429 47.9846 36.2689 48.0751 36.3334C48.1655 36.398 48.2266 36.4958 48.2449 36.6054C48.7172 39.4351 48.2452 41.3707 48.2248 41.4517C47.2989 46.5727 42.1424 50.0001 35.3668 50.0002ZM47.4799 35.5098C47.3884 35.5097 47.2994 35.4796 47.2266 35.4242C47.1537 35.3687 47.101 35.291 47.0765 35.2028C46.7496 34.0243 46.2733 32.8662 45.6614 31.7609C45.6093 31.6639 45.5974 31.5502 45.6285 31.4445C45.6596 31.3388 45.731 31.2496 45.8274 31.1962C45.9238 31.1428 46.0373 31.1296 46.1434 31.1593C46.2495 31.1891 46.3396 31.2594 46.3942 31.3552C47.0381 32.5179 47.5391 33.737 47.8837 34.9789C47.901 35.0411 47.9036 35.1065 47.8915 35.17C47.8793 35.2334 47.8526 35.2931 47.8135 35.3445C47.7745 35.396 47.724 35.4376 47.6661 35.4663C47.6082 35.4949 47.5445 35.5098 47.4799 35.5098ZM45.2611 30.7192C45.1921 30.7193 45.1242 30.7024 45.0634 30.6699C45.0025 30.6374 44.9507 30.5903 44.9124 30.5329C42.7973 27.3675 39.5073 24.6436 35.1335 22.4371C32.9001 21.3103 29.9176 20.0073 29.8877 19.9942C29.8086 19.9595 29.7421 19.9013 29.6974 19.8274C29.6527 19.7535 29.6319 19.6675 29.6379 19.5814C29.6439 19.4952 29.6764 19.413 29.7309 19.346C29.7854 19.279 29.8593 19.2305 29.9425 19.2071L30.6667 19.0047C29.2888 18.1115 28.5842 16.8006 28.5489 16.7335C28.5146 16.6684 28.498 16.5953 28.5008 16.5218C28.5037 16.4482 28.5259 16.3766 28.5652 16.3144C28.6046 16.2521 28.6596 16.2013 28.7248 16.1671C28.7901 16.1329 28.8631 16.1165 28.9367 16.1196L29.2933 16.1345C28.5752 14.9967 27.7564 13.1725 27.6416 12.9143C27.5999 12.8134 27.5992 12.7002 27.6397 12.5987C27.6803 12.4973 27.7588 12.4157 27.8586 12.3713C27.9584 12.327 28.0716 12.3233 28.174 12.3612C28.2765 12.399 28.3601 12.4754 28.4071 12.574C28.9394 13.7711 29.9628 15.8365 30.4435 16.2827C30.572 16.402 30.6127 16.5888 30.5452 16.7506C30.4777 16.9125 30.3188 17.0157 30.1411 17.0079L29.7266 16.9906C30.1611 17.5515 30.9137 18.3323 31.9591 18.7279C32.0417 18.7591 32.1124 18.8155 32.161 18.8893C32.2096 18.963 32.2336 19.0502 32.2297 19.1384C32.2257 19.2266 32.194 19.3113 32.139 19.3804C32.084 19.4494 32.0086 19.4994 31.9235 19.523L31.2895 19.7001C32.3735 20.1869 34.0907 20.9727 35.5107 21.689C40.0151 23.9614 43.4124 26.7802 45.6089 30.0673C45.6706 30.1597 45.6931 30.2728 45.6714 30.3817C45.6497 30.4906 45.5856 30.5865 45.4933 30.6482C45.4247 30.6946 45.3439 30.7193 45.2611 30.7192Z" fill="#333333"></path><path d="M19.3141 21.9141C19.1624 21.9141 19.0267 21.9022 18.899 21.878C16.315 21.3849 14.9673 19.0407 14.467 17.9366L13.5719 18.7256C13.5303 18.7623 13.4818 18.7904 13.4293 18.8082C13.3767 18.826 13.3212 18.8331 13.2658 18.8293C13.2105 18.8254 13.1565 18.8106 13.1069 18.7857C13.0573 18.7607 13.0132 18.7262 12.9771 18.684C12.9583 18.6622 12.5124 18.1357 12.0254 16.9725C11.7632 16.3462 11.5693 15.6759 11.4415 15.1654L11.1324 15.5344C11.0232 15.6645 10.8464 15.7162 10.6844 15.6645C10.6053 15.6393 10.5354 15.5912 10.4837 15.5262C10.4319 15.4613 10.4007 15.3824 10.3939 15.2996L10.1775 12.6604L9.67168 13.0145C9.60893 13.0585 9.53529 13.0844 9.45881 13.0895C9.38233 13.0945 9.30593 13.0784 9.23796 13.043C9.16998 13.0076 9.11302 12.9542 9.0733 12.8887C9.03358 12.8231 9.01262 12.7479 9.0127 12.6713C9.0127 12.5043 9.02744 12.2984 9.05642 12.0594C9.19897 10.8782 9.55236 9.79008 10.1066 8.82515C10.9687 7.32731 12.1897 6.06735 13.6597 5.15868C13.7541 5.10341 13.8664 5.08728 13.9726 5.11373C14.0788 5.14018 14.1704 5.20712 14.2279 5.30023C14.2853 5.39334 14.3041 5.50524 14.2801 5.612C14.2562 5.71877 14.1914 5.81193 14.0997 5.87157C12.7482 6.707 11.6256 7.86538 10.833 9.24244C10.3907 10.0126 10.0903 10.8731 9.9383 11.8053L10.2952 11.5555C10.3556 11.5132 10.4261 11.4875 10.4996 11.4812C10.573 11.4748 10.6468 11.488 10.7136 11.5194C10.7803 11.5507 10.8376 11.5992 10.8796 11.6598C10.9216 11.7204 10.9468 11.791 10.9527 11.8645L11.1454 14.2145L11.3458 13.9754C11.3969 13.9143 11.4644 13.8691 11.5403 13.8451C11.6162 13.821 11.6974 13.8191 11.7743 13.8395C11.8513 13.86 11.9208 13.9019 11.9748 13.9605C12.0287 14.019 12.0649 14.0917 12.079 14.1701C12.0814 14.1835 12.3259 15.5208 12.7982 16.6491C13.0154 17.1681 13.2207 17.5423 13.371 17.7861L14.3565 16.9174C14.4084 16.8719 14.4707 16.8398 14.538 16.8241C14.6052 16.8084 14.6753 16.8096 14.742 16.8275C14.8087 16.8455 14.8699 16.8796 14.9203 16.9269C14.9706 16.9742 15.0085 17.0332 15.0305 17.0986C15.0421 17.1327 16.2083 20.5117 19.0562 21.0549C19.2065 21.0837 19.4219 21.0837 19.5724 21.0549C22.4203 20.5117 23.5867 17.1327 23.5981 17.0986C23.6201 17.0331 23.6579 16.9741 23.7083 16.9268C23.7586 16.8795 23.8199 16.8453 23.8866 16.8274C23.9533 16.8095 24.0234 16.8083 24.0906 16.824C24.1579 16.8397 24.2203 16.8718 24.2721 16.9174L25.2576 17.7861C25.4077 17.5425 25.613 17.1681 25.8305 16.6491C26.3039 15.5179 26.5471 14.1835 26.5496 14.1703C26.5637 14.0919 26.5998 14.0191 26.6537 13.9605C26.7077 13.9019 26.7773 13.8599 26.8542 13.8395C26.9312 13.819 27.0124 13.821 27.0884 13.8451C27.1643 13.8692 27.2317 13.9144 27.2828 13.9755L27.4832 14.2147L27.6759 11.8647C27.682 11.7912 27.7073 11.7207 27.7493 11.6602C27.7913 11.5997 27.8486 11.5513 27.9153 11.52C27.9819 11.4887 28.0557 11.4755 28.1291 11.4817C28.2025 11.488 28.273 11.5135 28.3334 11.5557L28.6903 11.8055C28.5383 10.8733 28.2379 10.0126 27.7956 9.24261C26.9482 7.76831 25.7229 6.5467 24.246 5.70377C24.1496 5.64875 24.0789 5.55765 24.0495 5.45051C24.0202 5.34338 24.0347 5.22898 24.0897 5.13249C24.1447 5.036 24.2358 4.96532 24.3429 4.936C24.4501 4.90668 24.5645 4.92112 24.661 4.97614C26.2673 5.893 27.6001 7.22173 28.5218 8.82532C29.0759 9.78991 29.4293 10.8781 29.572 12.0596C29.601 12.2996 29.6157 12.5054 29.6157 12.6713C29.6156 12.7479 29.5946 12.8229 29.5548 12.8884C29.5151 12.9538 29.4581 13.0071 29.3902 13.0425C29.3223 13.0779 29.246 13.094 29.1696 13.089C29.0932 13.0841 29.0196 13.0583 28.9568 13.0145L28.451 12.6604L28.2345 15.2996C28.2278 15.3824 28.1966 15.4614 28.1449 15.5264C28.0932 15.5915 28.0233 15.6397 27.9441 15.6648C27.8649 15.69 27.78 15.691 27.7002 15.6678C27.6204 15.6446 27.5494 15.5981 27.4961 15.5344L27.1869 15.1652C27.0591 15.6757 26.8652 16.3461 26.603 16.9723C26.1161 18.1356 25.6701 18.662 25.6513 18.6839C25.6152 18.726 25.5711 18.7606 25.5215 18.7855C25.472 18.8104 25.418 18.8252 25.3626 18.8291C25.3073 18.833 25.2517 18.8258 25.1992 18.808C25.1466 18.7902 25.0982 18.7621 25.0566 18.7254L24.1615 17.9364C23.6611 19.0403 22.3135 21.3847 19.7294 21.8778C19.6016 21.9022 19.4658 21.9141 19.3141 21.9141Z" fill="#333333"></path><path d="M15.2324 5.23673C15.1357 5.23682 15.0419 5.20344 14.967 5.14226C14.8921 5.08108 14.8407 4.99586 14.8215 4.90108C14.8023 4.80631 14.8165 4.7078 14.8617 4.62229C14.9069 4.53678 14.9802 4.46954 15.0693 4.43198C16.3431 3.89469 17.6956 3.62231 19.0897 3.62231H19.538C20.8294 3.62231 22.1655 3.88113 23.4019 4.3708C23.5021 4.41383 23.5816 4.49423 23.6234 4.5949C23.6653 4.69557 23.6663 4.8086 23.6261 4.90997C23.586 5.01135 23.5079 5.09309 23.4085 5.13783C23.3091 5.18258 23.1961 5.1868 23.0936 5.14962C21.9543 4.69842 20.7248 4.45995 19.538 4.45995H19.0897C17.8082 4.45995 16.5651 4.71012 15.3949 5.20368C15.3435 5.22545 15.2882 5.23669 15.2324 5.23673ZM11.1296 8.42252C11.0562 8.4226 10.984 8.40337 10.9204 8.36674C10.8567 8.33012 10.8038 8.27741 10.7669 8.21388C10.434 7.64014 10.0522 6.72014 9.88963 6.27505C9.85155 6.17069 9.85649 6.05548 9.90336 5.95477C9.95023 5.85405 10.0352 5.77608 10.1395 5.73801C10.2439 5.69994 10.3591 5.70488 10.4598 5.75174C10.5605 5.79861 10.6385 5.88357 10.6766 5.98793C10.8407 6.43725 11.2018 7.29455 11.4915 7.79353C11.5285 7.85715 11.548 7.92939 11.5482 8.00297C11.5483 8.07655 11.5291 8.14887 11.4924 8.21265C11.4557 8.27642 11.4029 8.3294 11.3392 8.36625C11.2755 8.4031 11.2032 8.42251 11.1296 8.42252Z" fill="#333333"></path><path d="M15.7344 6.70955C15.6371 6.70944 15.5429 6.67549 15.468 6.61351C15.3931 6.55153 15.342 6.46539 15.3237 6.36988C15.3169 6.33565 14.624 3.02138 10.5318 0.990858C10.3245 1.62391 10.0048 2.97359 10.3123 4.65258C10.3323 4.76184 10.308 4.87456 10.2449 4.96594C10.1818 5.05733 10.0849 5.11989 9.97569 5.13987C9.86643 5.15986 9.75371 5.13562 9.66233 5.07249C9.57094 5.00936 9.50838 4.91252 9.48839 4.80326C9.0089 2.18494 9.88636 0.315767 9.92399 0.237462C9.97135 0.138942 10.0553 0.0628319 10.158 0.0253713C10.2607 -0.0120892 10.374 -0.00793356 10.4737 0.0369516C15.3401 2.2307 16.1157 6.05107 16.1464 6.21259C16.158 6.27319 16.156 6.33558 16.1406 6.39531C16.1252 6.45504 16.0968 6.51063 16.0574 6.55811C16.0181 6.60559 15.9687 6.64379 15.9128 6.66997C15.857 6.69615 15.7961 6.70966 15.7344 6.70955ZM27.3468 8.17295C27.2733 8.17293 27.201 8.15352 27.1373 8.11668C27.0736 8.07983 27.0208 8.02685 26.9841 7.96307C26.9474 7.8993 26.9281 7.82697 26.9283 7.7534C26.9285 7.67982 26.948 7.60758 26.985 7.54396C28.0431 5.72022 28.2036 4.0758 28.2052 3.25799C28.2053 3.14705 28.2495 3.04071 28.3281 2.96234C28.4066 2.88397 28.513 2.83998 28.624 2.84002H28.6248C28.6798 2.84011 28.7343 2.85104 28.7851 2.87218C28.8358 2.89333 28.882 2.92427 28.9208 2.96324C28.9596 3.00222 28.9903 3.04846 29.0113 3.09932C29.0322 3.15019 29.0429 3.20468 29.0428 3.25969C29.0411 4.16139 28.8657 5.97175 27.7094 7.96447C27.6726 8.02799 27.6197 8.0807 27.5561 8.11729C27.4924 8.15389 27.4203 8.17309 27.3468 8.17295ZM22.6544 6.70887C22.5928 6.709 22.5319 6.69552 22.4761 6.66939C22.4203 6.64326 22.371 6.60512 22.3317 6.55771C22.2923 6.51029 22.2639 6.45477 22.2485 6.39511C22.2331 6.33545 22.2311 6.27313 22.2426 6.21259C22.2731 6.05107 23.0488 2.2307 27.9153 0.0369516C28.015 -0.00788893 28.1283 -0.0120216 28.2309 0.0254345C28.3336 0.0628906 28.4176 0.138973 28.465 0.237462C28.4769 0.262377 28.7597 0.858653 28.925 1.83375C28.9342 1.88797 28.9326 1.94347 28.9204 1.99708C28.9081 2.05069 28.8854 2.10136 28.8536 2.1462C28.8217 2.19104 28.7814 2.22917 28.7348 2.25841C28.6882 2.28766 28.6363 2.30744 28.5821 2.31663C28.5279 2.32582 28.4724 2.32425 28.4188 2.31199C28.3652 2.29973 28.3145 2.27704 28.2697 2.2452C28.1791 2.18089 28.1178 2.08325 28.0992 1.97375C28.0434 1.6404 27.9628 1.31168 27.858 0.990349C23.7651 3.02087 23.0721 6.33548 23.0653 6.36971C23.0467 6.46508 22.9955 6.55103 22.9206 6.61288C22.8457 6.67474 22.7516 6.70867 22.6544 6.70887Z" fill="#333333"></path></g><defs><clipPath id="clip0_4881_428"><rect width="50" height="50" fill="white"></rect></clipPath></defs></svg>