<svg xmlns="http://www.w3.org/2000/svg" width="50" height="50" viewBox="0 0 50 50" fill="none"><g clip-path="url(#clip0_4881_516)"><path d="M41.391 13.4153C35.1512 13.4766 29.0449 9.97348 25.6812 7.5391C25.483 7.39569 25.2446 7.31848 25 7.31848C24.7554 7.31848 24.517 7.39569 24.3188 7.5391C20.9551 9.97348 14.8488 13.4766 8.60898 13.4153C8.45265 13.4126 8.29734 13.441 8.15211 13.4989C8.00687 13.5569 7.87462 13.6431 7.76304 13.7526C7.65147 13.8622 7.56281 13.9928 7.50222 14.137C7.44164 14.2811 7.41034 14.4359 7.41016 14.5922C7.41406 25.4516 10.3418 36.7227 24.4715 43.8774C24.6354 43.96 24.8164 44.0031 25 44.0031C25.1836 44.0031 25.3646 43.96 25.5285 43.8774C39.6582 36.7227 42.5859 25.45 42.5898 14.5922C42.5897 14.4359 42.5584 14.2811 42.4978 14.137C42.4372 13.9928 42.3485 13.8622 42.237 13.7526C42.1254 13.6431 41.9931 13.5569 41.8479 13.4989C41.7027 13.441 41.5473 13.4126 41.391 13.4153Z" fill="#BECE1E"></path><path d="M40.625 9.17969C42.243 9.17969 43.5547 7.86802 43.5547 6.25C43.5547 4.63198 42.243 3.32031 40.625 3.32031C39.007 3.32031 37.6953 4.63198 37.6953 6.25C37.6953 7.86802 39.007 9.17969 40.625 9.17969Z" fill="#BECE1E"></path><path d="M7.42188 45.1172C9.25563 45.1172 10.7422 43.6306 10.7422 41.7969C10.7422 39.9631 9.25563 38.4766 7.42188 38.4766C5.58812 38.4766 4.10156 39.9631 4.10156 41.7969C4.10156 43.6306 5.58812 45.1172 7.42188 45.1172Z" fill="#BECE1E"></path><path d="M28.5156 22.0703H21.4844C20.19 22.0703 19.1406 23.1196 19.1406 24.4141V30.6641C19.1406 31.9585 20.19 33.0078 21.4844 33.0078H28.5156C29.81 33.0078 30.8594 31.9585 30.8594 30.6641V24.4141C30.8594 23.1196 29.81 22.0703 28.5156 22.0703Z" fill="white"></path><path d="M41.3852 12.8297C34.7941 12.8934 28.4496 8.81842 26.0254 7.06334C25.7274 6.84683 25.3685 6.73022 25.0002 6.73022C24.6319 6.73022 24.273 6.84683 23.975 7.06334C21.5504 8.82115 15.1902 12.8805 8.61484 12.8297C8.38138 12.8274 8.14976 12.8712 7.93327 12.9587C7.71679 13.0461 7.5197 13.1754 7.35333 13.3392C7.18695 13.503 7.05457 13.6981 6.96377 13.9132C6.87297 14.1283 6.82554 14.3592 6.82422 14.5926C6.82734 23.6114 8.63242 36.5141 24.207 44.4001C24.453 44.5243 24.7248 44.589 25.0004 44.589C25.276 44.589 25.5477 44.5243 25.7937 44.4001C41.368 36.5141 43.173 23.6114 43.1766 14.5926C43.175 14.3592 43.1273 14.1283 43.0364 13.9133C42.9455 13.6983 42.813 13.5033 42.6466 13.3395C42.4802 13.1758 42.2831 13.0464 42.0667 12.959C41.8502 12.8715 41.6186 12.8276 41.3852 12.8297ZM25.2641 43.3547C25.1822 43.3961 25.0917 43.4176 25 43.4176C24.9083 43.4176 24.8178 43.3961 24.7359 43.3547C9.7375 35.7598 7.99922 23.302 7.99609 14.5919C7.99666 14.5137 8.01263 14.4364 8.0431 14.3644C8.07357 14.2924 8.11794 14.2271 8.17368 14.1723C8.22941 14.1175 8.2954 14.0742 8.36789 14.0449C8.44037 14.0156 8.51792 14.0009 8.59609 14.0016C15.4492 14.093 22.168 9.83482 24.6625 8.01256C24.7606 7.94117 24.8787 7.90272 25 7.90272C25.1213 7.90272 25.2394 7.94117 25.3375 8.01256C27.8316 9.83365 34.5434 14.0903 41.3973 14.0016C41.4759 14.0003 41.5541 14.0145 41.6272 14.0435C41.7003 14.0725 41.767 14.1156 41.8234 14.1705C41.8798 14.2254 41.9248 14.2908 41.9557 14.3631C41.9867 14.4355 42.0031 14.5132 42.0039 14.5919C42.0008 23.302 40.2625 35.7598 25.2641 43.3547Z" fill="#110F0F"></path><path d="M48.5604 18.7695C48.4096 18.8053 48.2791 18.8993 48.1974 19.0311C48.1158 19.1629 48.0897 19.3217 48.1249 19.4727C48.553 21.2847 48.7693 23.1404 48.7694 25.0024C48.7627 31.3045 46.2563 37.3466 41.8002 41.8031C37.344 46.2595 31.302 48.7663 24.9999 48.7734C19.8239 48.7913 14.787 47.0994 10.6714 43.9606C11.2206 43.1385 11.4389 42.1392 11.2826 41.163C11.1263 40.1867 10.6069 39.3056 9.82847 38.6961C9.05003 38.0866 8.07004 37.7937 7.08481 37.8761C6.09958 37.9585 5.18187 38.4101 4.51551 39.1405C3.84915 39.8709 3.48336 40.826 3.49141 41.8147C3.49946 42.8033 3.88075 43.7524 4.55891 44.4718C5.23707 45.1913 6.16202 45.6279 7.14846 45.6942C8.1349 45.7606 9.10999 45.4518 9.8784 44.8297C14.2123 48.1644 19.5316 49.9639 24.9999 49.9453C31.6125 49.9379 37.9521 47.3077 42.6279 42.6319C47.3037 37.9561 49.9338 31.6165 49.9413 25.0039C49.9411 23.0513 49.7144 21.1054 49.2655 19.2051C49.2478 19.1302 49.2155 19.0595 49.1705 18.9971C49.1255 18.9347 49.0687 18.8817 49.0032 18.8413C48.9377 18.8008 48.8649 18.7737 48.7889 18.7614C48.713 18.7491 48.6353 18.7518 48.5604 18.7695ZM7.42176 44.5313C6.88095 44.5313 6.35229 44.3709 5.90262 44.0704C5.45295 43.77 5.10248 43.3429 4.89552 42.8433C4.68857 42.3436 4.63442 41.7938 4.73992 41.2634C4.84543 40.733 5.10585 40.2458 5.48826 39.8634C5.87067 39.481 6.35789 39.2206 6.88831 39.115C7.41872 39.0095 7.96852 39.0637 8.46816 39.2706C8.9678 39.4776 9.39485 39.8281 9.69531 40.2777C9.99576 40.7274 10.1561 41.2561 10.1561 41.7969C10.1553 42.5218 9.86695 43.2169 9.35434 43.7295C8.84172 44.2421 8.1467 44.5304 7.42176 44.5313ZM1.23035 25.0039C1.23076 20.7759 2.35877 16.6246 4.4981 12.9778C6.63742 9.33101 9.71065 6.32077 13.4009 4.25742C17.0912 2.19406 21.2651 1.15225 25.4922 1.23938C29.7192 1.32652 33.8466 2.53945 37.4487 4.75313C37.0742 5.55035 37.0128 6.45916 37.2767 7.29951C37.5405 8.13986 38.1104 8.85043 38.8734 9.29046C39.6365 9.73048 40.5369 9.86784 41.3964 9.67534C42.2559 9.48283 43.0118 8.97449 43.5142 8.25104C44.0166 7.52759 44.229 6.64181 44.1092 5.76919C43.9894 4.89657 43.5462 4.10078 42.8674 3.53948C42.1886 2.97818 41.3238 2.69233 40.4442 2.73855C39.5646 2.78478 38.7345 3.15971 38.1182 3.78907C34.0091 1.25364 29.2528 -0.0353143 24.4258 0.0784654C19.5987 0.192245 14.9084 1.70388 10.9233 4.43009C6.93824 7.15631 3.82961 10.98 1.97428 15.4377C0.118953 19.8954 -0.403387 24.7955 0.470586 29.5441C0.49549 29.6787 0.566702 29.8003 0.67187 29.8878C0.777038 29.9754 0.90953 30.0234 1.04637 30.0234C1.08228 30.0236 1.11812 30.0204 1.1534 30.0137C1.30599 29.9852 1.44105 29.8974 1.52893 29.7694C1.61681 29.6415 1.65034 29.4839 1.62215 29.3313C1.36029 27.9037 1.22915 26.4553 1.23035 25.0039ZM40.6249 3.90626C41.0884 3.90626 41.5416 4.04372 41.927 4.30125C42.3124 4.55879 42.6128 4.92483 42.7902 5.35309C42.9676 5.78136 43.014 6.25261 42.9236 6.70725C42.8332 7.16189 42.6099 7.57951 42.2822 7.90729C41.9544 8.23507 41.5368 8.45829 41.0821 8.54873C40.6275 8.63916 40.1562 8.59274 39.728 8.41535C39.2997 8.23796 38.9337 7.93755 38.6761 7.55213C38.4186 7.1667 38.2811 6.71356 38.2811 6.25001C38.2818 5.6286 38.5289 5.03282 38.9683 4.59341C39.4077 4.15401 40.0035 3.90688 40.6249 3.90626Z" fill="#110F0F"></path><path d="M29.6875 21.7309V21.125C29.6184 14.8555 20.382 14.8535 20.3125 21.125V21.7309C19.7906 21.9591 19.3464 22.3344 19.0343 22.8108C18.7221 23.2873 18.5555 23.8444 18.5547 24.4141V30.6641C18.5555 31.4408 18.8644 32.1855 19.4137 32.7348C19.9629 33.284 20.7076 33.5929 21.4844 33.5938H28.5156C29.2924 33.5929 30.0371 33.284 30.5863 32.7348C31.1356 32.1855 31.4445 31.4408 31.4453 30.6641V24.4141C31.4445 23.8444 31.2779 23.2873 30.9657 22.8108C30.6536 22.3344 30.2094 21.9591 29.6875 21.7309ZM21.4844 21.1328C21.5391 16.382 28.4609 16.3832 28.5156 21.1328V21.4844H21.4844V21.1328ZM30.2734 30.6641C30.2729 31.1301 30.0876 31.5769 29.758 31.9065C29.4285 32.236 28.9817 32.4214 28.5156 32.4219H21.4844C21.0183 32.4214 20.5715 32.236 20.242 31.9065C19.9124 31.5769 19.7271 31.1301 19.7266 30.6641V24.4141C19.7271 23.948 19.9124 23.5012 20.242 23.1717C20.5715 22.8421 21.0183 22.6568 21.4844 22.6562H28.5156C28.9817 22.6568 29.4285 22.8421 29.758 23.1717C30.0876 23.5012 30.2729 23.948 30.2734 24.4141V30.6641Z" fill="#110F0F"></path><path d="M25.9594 26.8664C25.9507 26.814 25.9531 26.7603 25.9666 26.7089C25.9801 26.6574 26.0042 26.6094 26.0375 26.568C26.1683 26.3788 26.2449 26.1574 26.259 25.9277C26.273 25.6981 26.224 25.469 26.1171 25.2653C26.0103 25.0615 25.8498 24.8909 25.6529 24.7718C25.4561 24.6528 25.2304 24.5898 25.0004 24.5898C24.7703 24.5898 24.5447 24.6528 24.3478 24.7718C24.151 24.8909 23.9904 25.0615 23.8836 25.2653C23.7768 25.469 23.7278 25.6981 23.7418 25.9277C23.7558 26.1574 23.8324 26.3788 23.9633 26.568C23.9964 26.609 24.0205 26.6565 24.0339 26.7075C24.0474 26.7584 24.0499 26.8117 24.0414 26.8637C23.9496 27.3211 23.6898 28.6289 23.5066 29.5367C23.4844 29.65 23.4874 29.7667 23.5157 29.8786C23.5439 29.9905 23.5966 30.0947 23.6699 30.1839C23.7432 30.273 23.8353 30.3447 23.9397 30.394C24.0441 30.4433 24.158 30.4688 24.2734 30.4688H25.7266C25.8422 30.4688 25.9563 30.4432 26.0608 30.3938C26.1654 30.3444 26.2576 30.2724 26.3309 30.183C26.4042 30.0936 26.4568 29.989 26.4848 29.8769C26.5128 29.7647 26.5156 29.6477 26.493 29.5344L25.9594 26.8664Z" fill="#110F0F"></path></g><defs><clipPath id="clip0_4881_516"><rect width="50" height="50" fill="white"></rect></clipPath></defs></svg>