<svg xmlns="http://www.w3.org/2000/svg" width="50" height="50" viewBox="0 0 50 50" fill="none"><g clip-path="url(#clip0_4883_537)"><path fill-rule="evenodd" clip-rule="evenodd" d="M35.7812 16.432L27.2101 24.9989L35.7812 33.5732C36.0745 33.8662 36.2393 34.2638 36.2395 34.6784C36.2396 35.0931 36.075 35.4907 35.7819 35.784C35.4888 36.0773 35.0913 36.2421 34.6767 36.2422C34.262 36.2424 33.8644 36.0778 33.5711 35.7847L25 27.2105L16.4288 35.7847C16.1355 36.0778 15.7378 36.2423 15.3232 36.2422C14.9086 36.242 14.511 36.0771 14.2179 35.7839C13.9248 35.4906 13.7603 35.0929 13.7604 34.6782C13.7606 34.2636 13.9255 33.866 14.2187 33.573L22.7899 24.9987L14.2187 16.432C14.0725 16.2871 13.9562 16.1147 13.8767 15.9248C13.7972 15.7349 13.7561 15.5311 13.7555 15.3253C13.755 15.1194 13.7951 14.9154 13.8736 14.7251C13.9522 14.5347 14.0675 14.3618 14.213 14.2162C14.3586 14.0705 14.5314 13.9551 14.7217 13.8765C14.912 13.7978 15.1159 13.7575 15.3218 13.7579C15.5277 13.7583 15.7315 13.7994 15.9214 13.8788C16.1114 13.9581 16.2838 14.0742 16.4288 14.2204L25 22.7874L33.5712 14.2204C33.8649 13.9295 34.2619 13.7668 34.6753 13.7679C35.0887 13.769 35.4848 13.9337 35.777 14.2261C36.0692 14.5185 36.2337 14.9148 36.2345 15.3282C36.2353 15.7416 36.0723 16.1384 35.7812 16.432ZM40.4673 40.4656C48.9974 31.9403 48.9974 18.0644 40.4673 9.53224C36.3621 5.43561 30.7994 3.13487 24.9999 3.13487C19.2004 3.13487 13.6377 5.43561 9.53252 9.53224C1.00322 18.0644 1.00322 31.9404 9.53252 40.4656C18.0612 48.9978 31.9394 48.9978 40.4673 40.4656ZM25 0.00255635C20.0556 0.00211486 15.2222 1.46794 11.1109 4.21466C6.99967 6.96138 3.7953 10.8656 1.90307 15.4336C0.0108365 20.0015 -0.484263 25.028 0.480387 29.8774C1.44504 34.7267 3.82611 39.1811 7.32246 42.6772C12.011 47.3655 18.37 49.9993 25.0005 49.9992C31.6309 49.9991 37.9898 47.365 42.6782 42.6764C47.3665 37.9879 50.0004 31.6289 50.0002 24.9984C50.0001 18.3679 47.366 12.0091 42.6774 7.32072C40.3614 4.99234 37.6064 3.14661 34.572 1.89043C31.5376 0.634242 28.2841 -0.00743661 25 0.00255635Z" fill="#FF3927"></path></g><defs><clipPath id="clip0_4883_537"><rect width="50" height="50" fill="white"></rect></clipPath></defs></svg>